<svg fill="none" height="434" viewBox="0 0 179 434" width="179" xmlns="http://www.w3.org/2000/svg" xmlns:xlink="http://www.w3.org/1999/xlink"><linearGradient id="a" gradientUnits="userSpaceOnUse" x1="89.5" x2="89.5" y1="122.292" y2="204.196"><stop offset="0" stop-color="#1e2126"/><stop offset="1" stop-color="#FBC93B"/></linearGradient><linearGradient id="b" gradientUnits="userSpaceOnUse" x1="90.88" x2="90.88" y1="119.743" y2="148.727"><stop offset="0" stop-color="#282b31" stop-opacity=".49"/><stop offset="1" stop-color="#373b41" stop-opacity="0"/></linearGradient><linearGradient id="c"><stop offset="0" stop-color="#fff"/><stop offset="1" stop-color="#fff" stop-opacity="0"/></linearGradient><linearGradient id="d" gradientUnits="userSpaceOnUse" x1="30.736" x2="30.736" xlink:href="#c" y1="32.652" y2="76.698"/><linearGradient id="e" gradientUnits="userSpaceOnUse" x1="50.369" x2="50.369" xlink:href="#c" y1="32.652" y2="76.464"/><linearGradient id="f" gradientUnits="userSpaceOnUse" x1="86.039" x2="86.039" xlink:href="#c" y1="66.196" y2="89.64"/><linearGradient id="g" gradientUnits="userSpaceOnUse" x1="95.587" x2="102.61" xlink:href="#c" y1="110.793" y2="82.353"/><filter id="h" color-interpolation-filters="sRGB" filterUnits="userSpaceOnUse" height="162.624" width="150.437" x="6.509" y=".304"><feFlood flood-opacity="0" result="BackgroundImageFix"/><feColorMatrix in="SourceAlpha" values="0 0 0 0 0 0 0 0 0 0 0 0 0 0 0 0 0 0 127 0"/><feOffset dy="15"/><feGaussianBlur stdDeviation="7.5"/><feColorMatrix values="0 0 0 0 0 0 0 0 0 0 0 0 0 0 0 0 0 0 0.1 0"/><feBlend in2="BackgroundImageFix" result="effect1_dropShadow"/><feBlend in="SourceGraphic" in2="effect1_dropShadow" result="shape"/></filter><path d="m89.5 87.952-89.5 34.488 89.5 27.59 89.5-28.652z" fill="#373b41"/><path d="m89.5 148.268-89.5-25.976v311.708h179v-311.708z" fill="url(#a)"/><path d="m36.85 132.736 13.445-11.494 78.182-1.499 16.433 12.993-54.777 15.991z" fill="url(#b)"/><g filter="url(#h)"><path d="m39.712 77.804c-7.154 0-13.002-.687-13.189-1.546l1.058 12.943c0 6.139 5.454 11.14 12.131 11.14 6.678 0 12.132-5.022 12.132-11.14l1.056-12.943c-.145.859-5.993 1.546-13.189 1.546z" fill="#dec7b2"/><path d="m39.733 77.738c-7.279 0-13.168-.709-13.21-1.567v-.022c.063-.88 5.952-1.567 13.21-1.567s13.127.708 13.21 1.567v.022c-.042.88-5.952 1.567-13.21 1.567z" fill="#e8d4c1"/><path d="m39.33 77.265c-6.138 0-11.115-.6-11.136-1.33v-.022c.063-.73 5.019-1.331 11.136-1.331 6.118 0 11.095.58 11.136 1.331v.022c-.02.73-4.997 1.33-11.136 1.33z" fill="#ba9c7e"/><path d="m27.358 82.128c.85.021 1.68.365 2.406 1.095 1.348 1.352 2.198 3.455 3.297 5.044.415-.859.767-1.739 1.1-2.64.393-1.074 1.783-2.082 2.882-1.202 1.161.922 2.032 1.996 2.8 3.305.642 1.138 1.181 2.468 2.197 3.327.975.816 2.095 1.052 2.489-.408.352-1.266.228-2.64.622-3.928.332-1.052.85-2.168 1.908-2.64 1.244-.558 2.447.129 3.546.709.664.343 1.306.708 1.95 1.094l-.229 2.726c-1.14-.73-2.509-1.631-3.67-1.803-.726-.107-.685.408-.726 1.116-.042.644-.042 1.288-.062 1.91-.063 1.31-.25 2.598-.996 3.67-1.596 2.319-4.583 2.212-6.677.73-1.14-.794-1.95-1.824-2.675-3.004-.228-.387-.457-.794-.685-1.18-.891 2.167-2.28 4.099-4.541 3.283-1.41-.515-2.323-2.103-3.173-3.284-.27-.365-.746-1.266-1.223-2.06z" fill="#ebdbcd"/><path d="m38.134 74.643c0-.025 0-.044.002-.053.004-.052.017-.1.02-.113v-.002l.004-.01.003-.011c2.282-7.297 1.49-15.322-1.818-22.148-1.313-2.684-3.132-4.985-4.989-7.333-.567-.717-1.138-1.44-1.7-2.178m8.478 31.848-8.08-32.15m8.08 32.15c-.065.188-.165.477-.318.91l-.001.003c-.12.35-.31.515-.488.588-.189.076-.433.076-.695-.03-.527-.213-1.034-.82-1.017-1.695v-.004c.021-2.217-.542-4.268-1.48-6.211-.861-1.781-1.82-3.503-2.77-5.211l-.163-.294c-1.006-1.809-1.998-3.608-2.871-5.478m9.803 17.422-14.296-41.238m5.819 9.39s0 0 0 0l.398-.303m-.398.303s0 0 0 0l.398-.303m-.398.303c-1.18-1.55-2.195-3.19-3.02-4.986m3.418 4.683c-1.161-1.523-2.157-3.133-2.966-4.893m-.453.21.001.003.452-.213m-.453.21-.141-.301c-.744-1.586-1.422-3.031-2.657-4.103m2.798 4.404v-.002l.453-.208m0 0-3.25-4.194m0 0s0 0 0 0l.327-.378-.328.377s0 0 0 0zm0 0c-.255-.219-.596-.296-.884-.231-.269.06-.498.242-.585.594m0 0s0 0 0 0l-.486-.119.486.12s0 0 0 0zm0 0c-.958 3.925.153 7.94 1.4 11.812l.002.005c1.236 3.966 2.803 7.852 4.559 11.636m0 0s0 0 0 0l-.453.21.453-.21s0 0 0 0z" fill="#4c7378" stroke="url(#d)"/><path d="m38.2 11.674c.892-1.695 3.567-.536 3.028 1.31-1.555 5.473-.435 11.29.519 16.763.974 5.602 2.115 11.161 2.8 16.807 1.181 10.023.808 21.292-5.33 29.663-.664.901-2.053.15-1.514-.923.601-1.18-.933-8.993-1.597-11.505-.684-2.575-1.39-5.173-2.012-7.748-1.223-5.066-2.218-10.239-2.488-15.476-.518-10.152 1.908-20.004 6.594-28.89z" fill="#57848a"/><path d="m42.6 56.924c.68-3.307 1.623-6.652 3.09-9.647 1.38-2.795 3.485-4.796 5.997-6.55l.002-.002c.252-.177.512-.357.777-.54.97-.668 2-1.378 2.902-2.194 1.16-1.05 2.153-2.313 2.611-3.98v-.002c.168-.612.768-.919 1.387-.848.302.035.562.159.733.34.162.173.273.427.24.803-.385 4.035-2.043 7.61-3.985 11.16-2.099 3.806-3.95 7.503-5.004 11.82v.001c-.15.621-.297 1.255-.446 1.896-.737 3.17-1.515 6.523-2.832 9.443-1.56 3.464-3.841 6.232-7.627 7.31-.05-.19-.074-.561-.024-1.207.106-1.382.519-3.717 1.287-7.37.374-1.758.42-3.559.464-5.306v-.021c.045-1.756.087-3.458.428-5.106zm-2.12 19.105-.002-.001.001.001z" fill="#689399" stroke="url(#e)"/><path d="m126.362 6.262-.394-.386 3.815-4.25 2.987 4.293-.457.322-2.571-3.692z" fill="#e8d4c1"/><path d="m112.677 116.034c-1.099.301-2.281-.472-2.8-1.824l-2.882-7.556c-.643-1.652.021-3.477 1.348-3.842l1.783-.493c1.348-.365 2.758.88 3.007 2.64l1.099 8.049c.187 1.438-.477 2.726-1.555 3.026zm-46.12 0c1.1.301 2.281-.472 2.8-1.824l2.882-7.556c.643-1.652-.02-3.477-1.348-3.842l-1.783-.493c-1.348-.365-2.758.88-3.007 2.64l-1.1 8.049c-.207 1.438.457 2.726 1.556 3.026z" fill="#7a5b3c"/><path d="m119.432 123.487c-1.431.386-2.966-.623-3.629-2.383l-3.733-9.809c-.809-2.146.021-4.507 1.763-4.98l2.322-.622c1.742-.472 3.588 1.137 3.92 3.434l1.41 10.453c.249 1.846-.622 3.52-2.053 3.907zm-59.064 0c1.431.386 2.966-.623 3.63-2.383l3.732-9.809c.809-2.146-.02-4.507-1.763-4.98l-2.322-.622c-1.742-.472-3.588 1.137-3.92 3.434l-1.41 10.453c-.228 1.846.622 3.52 2.053 3.907z" fill="#a67c52"/><path d="m123.947 84.35h-67.5c-4.044 0-7.362-3.412-7.362-7.62v-28.911c0-4.185 3.297-7.62 7.362-7.62h67.5c4.044 0 7.362 3.413 7.362 7.62v28.913c0 4.207-3.318 7.62-7.362 7.62z" fill="#676bc4"/><path d="m126.619 69.744c-1.245.021-2.282 1.009-2.385 2.296-.457 4.916-1.804 16.12-4.728 21.7-2.012 3.843-7.943 4.186-9.519 4.208h-39.318c-1.576-.022-7.486-.365-9.518-4.207-2.925-5.581-4.293-16.764-4.729-21.7-.124-1.288-1.14-2.254-2.384-2.297l-12.505-.193c-1.431-.022-2.572 1.223-2.468 2.704.415 6.139 2.053 21.228 8.378 30.951 3.443 5.259 8.793 6.89 10.14 7.234.768.257 65.303.107 65.821-.022 1.721-.493 6.595-2.296 9.809-7.19 6.346-9.702 7.984-24.813 8.378-30.951.104-1.481-1.037-2.726-2.468-2.705z" fill="#676bc4"/><path d="m70.894 98.373h39.36c1.576-.022 7.507-.365 9.518-4.208 3.111-5.924 4.438-18.18 4.832-22.558.083-.923-.104-1.846-.519-2.662l-2.592-5.087c-.145-.279-.56-.214-.601.086-.705 3.627-3.339 16.635-4.708 17.58-1.596 1.094-50.308.15-52.175 0-1.597-.108-3.256-13.48-3.712-17.43-.041-.322-.477-.407-.622-.107l-2.51 4.915c-.435.859-.621 1.825-.538 2.77.373 4.356 1.7 16.612 4.81 22.493 1.97 3.821 7.902 4.186 9.457 4.207z" fill="#4a52bd"/><path d="m114.215 98.711h-48.028c-.145 0-.27 0-.394-.021-4.832-.194-7.943-4.98-6.18-9.273l2.177-5.302c.187-.45.623-1.63.623-1.63 1.866-4.315 4.831-5.388 8.958-5.388h37.68c4.127 0 7.901 2.21 9.041 5.602 0 0 .353.966.54 1.416l2.177 5.302c1.763 4.293-1.348 9.08-6.18 9.273-.145.021-.29.021-.414.021z" fill="#2f37a8"/><path d="m56.422 71.49c-.083-.965.104-1.93.54-2.768l2.509-4.915c.145-.28.518-.215.601.064 0 0-.062-.901-1.866-1.03h-7.092c-1.224 0-2.427.365-3.464 1.052l-6.49 4.357c-1.37.923-2.178 2.533-2.095 4.228-.103-1.48 1.037-2.726 2.468-2.704l12.505.193c1.16.021 2.136.88 2.364 2.039l.02.022c.021-.172 0-.365 0-.537zm68.264-.02c.083-.966-.187-1.91-.622-2.77l-2.509-4.893c-.146-.28-.519-.215-.602.064 0 0 .062-.901 1.866-1.03h7.072c1.223 0 2.447.365 3.463 1.051l6.491 4.358c1.389.923 2.177 2.554 2.094 4.228.104-1.48-1.057-2.726-2.467-2.704l-12.505.193c-1.182.021-2.094.88-2.302 2.039-.021.022 0-.365.021-.537z" fill="#868ae0"/><path d="m122.314 81.843s2.032.236 3.504 1.803c1.473 1.567.975 4.185 0 5.001-1.7 1.395-4.977 1.395-7.444 1.395-2.468 0-4.106-.58-4.106-.58l3.152-8.091s1.97-.365 4.894.472z" fill="#ab534d"/><path d="m93.935 105.962c-1.223 2.297-2.426 4.572-3.629 6.847-.809 1.524.311 3.606 1.721 4.186 1.722.708 3.235-.258 4.044-1.782 1.224-2.296 2.426-4.572 3.63-6.847.808-1.524-.312-3.606-1.722-4.185-1.7-.73-3.235.236-4.044 1.781z" fill="#fcb58a"/><path d="m105.225 33.538s-2.675-8.865-3.588-12.6c-1.389-5.774-5.205-9.251-10.576-9.251-5.454 0-9.27 3.542-10.783 9.294-1.535 5.924-3.546 12.106-3.546 12.106-.228.794.145 1.631.87 1.931 1.722.709 5.351 1.975 13.46 1.868 7.237-.107 10.969-1.16 12.856-1.352.934-.13 1.556-1.052 1.307-1.996z" fill="#110580"/><path d="m93.706 30.975h-6.18v11.055c0 .837.643 1.503 1.452 1.503h3.276c.81 0 1.452-.666 1.452-1.503z" fill="#fcb58a"/><path d="m90.547 11.287c2.13 0 3.857-1.787 3.857-3.992 0-2.206-1.727-3.993-3.857-3.993s-3.858 1.787-3.858 3.993c0 2.205 1.727 3.992 3.858 3.992z" fill="#110580"/><path d="m141.405 24.642h-25.196c-.145 0-.27-.129-.27-.28v-18.264c0-.15.125-.28.27-.28h25.196c.145 0 .27.13.27.28v18.287c0 .13-.125.258-.27.258z" fill="#ebdbcd"/><path d="m138.8 21.641h-18.477c-.125 0-.208-.107-.208-.214v-12.879c0-.129.104-.214.208-.214h18.477c.124 0 .207.107.207.214v12.879c0 .107-.104.214-.207.214z" fill="#fcfaf8"/><path d="m68.13 67.693.002-.001c4.978-1.317 11.895-1.123 17.615-.584 2.85.269 5.387.62 7.21.906.672.105 1.247.2 1.704.28l-8.371 5.516-.907.597 1.044.3.138-.48-.138.48v.001h.001l.005.002.019.005.073.021.278.08 1.01.289c.845.24 1.994.567 3.21.908 2.426.68 5.143 1.425 6.24 1.665 1.062.233 5.097 1.296 8.908 2.352 1.903.527 3.743 1.05 5.119 1.463.69.207 1.258.385 1.659.521l.215.075c-.117.214-.289.499-.503.837-.468.736-1.116 1.689-1.774 2.636-.658.946-1.324 1.88-1.825 2.58-.25.349-.459.64-.606.842l-.083.115h-.046l-.848.008c-.735.007-1.794.015-3.09.022-2.592.013-6.132.02-9.924-.01-7.6-.055-16.165-.25-20.17-.791-4.055-.558-7.952-1.339-10.832-3.01-1.43-.83-2.596-1.872-3.405-3.205-.808-1.33-1.279-2.98-1.279-5.052 0-2.351 1.103-4.367 2.836-5.968 1.737-1.605 4.09-2.773 6.515-3.4z" fill="#ff8a91" stroke="url(#f)"/><path d="m98.025 112.72.353.349-.354-.349s0 0 0 0zm.1-.054-.012.002.011-.002zm-.058.007c-.053.001-.136-.002-.253-.019-.288-.04-.685-.141-1.14-.288-.91-.295-1.972-.749-2.716-1.17l-.002-.001c-1.183-.663-2.315-1.847-2.832-2.425-.043-.051-.065-.131-.04-.229.13-.474.45-1.454.872-2.749.275-.845.594-1.825.934-2.887.853-2.671 1.822-5.829 2.49-8.54 1.155-4.72 3.046-8.267 4.643-10.63.799-1.183 1.525-2.068 2.048-2.656.261-.293.472-.512.616-.657.072-.072.128-.126.164-.16l.041-.039.009-.008.002-.002.428-.388-.446-.368-.318.386.318-.386h-.001l-.001-.001-.001-.002-.005-.003-.015-.012-.05-.039c-.043-.032-.105-.076-.187-.131-.164-.11-.409-.264-.746-.446-.673-.363-1.713-.842-3.202-1.323-2.56-.826-7.918-2.44-12.09-3.513.166-.079.341-.166.523-.261 1.1-.574 2.489-1.465 3.504-2.709 1.176-1.413 1.922-2.523 2.377-3.287.227-.382.382-.678.48-.881l.014-.028.152-.008c.293-.017.724-.039 1.268-.059 1.09-.04 2.633-.074 4.45-.049 3.64.05 8.357.34 12.706 1.284 5.651 1.246 8.929 3.597 10.402 7.48l.001.001c.879 2.314.32 4.868-1.135 7.814-1.214 2.458-3.007 5.103-4.979 8.012-.393.579-.792 1.168-1.196 1.769-2.382 3.56-6.656 8.466-10.353 12.5-1.845 2.013-3.54 3.802-4.774 5.087-.617.643-1.119 1.16-1.466 1.516l-.4.409zm4.183-32.443c.001 0 .001 0 0 0z" fill="#ffadb2" stroke="url(#g)"/><path d="m81.858 30.92c-.996 0-1.016-2.983-1.016-3.327 0-.343.02-3.327 1.016-3.327.995 0 1.016 2.984 1.016 3.328.02.322-.02 3.327-1.016 3.327zm0-6.096c-.187.193-.477 1.18-.477 2.77 0 1.566.29 2.575.477 2.769.187-.194.477-1.181.477-2.77 0-1.61-.29-2.597-.477-2.769zm17.549 6.096c-.996 0-1.016-2.983-1.016-3.327 0-.343.02-3.327 1.016-3.327.995 0 1.016 2.984 1.016 3.328 0 .322-.021 3.327-1.016 3.327zm0-6.096c-.187.193-.477 1.18-.477 2.77 0 1.566.29 2.575.477 2.769.186-.194.477-1.181.477-2.77 0-1.61-.29-2.597-.477-2.769z" fill="#fff"/><path d="m91.086 33.733c5.658 0 10.244-4.747 10.244-10.603s-4.586-10.604-10.244-10.604-10.244 4.748-10.244 10.604 4.586 10.603 10.244 10.603z" fill="#fcb58a"/><path d="m80.068 23.256c.02.172.02.344.041.494 0 .021 0 .043.021.064.021.193.042.365.063.537v.021c.02.194.062.387.103.58.684-2.92 3.235-5.087 6.263-5.087.373 0 .746.021 1.099.107.27.065.56.107.83.107 1.907 0 3.483-1.48 3.69-3.412 0 0 .022 0 .022-.022-.021.193-.063.408-.063.623 0 2.253 1.763 4.078 3.94 4.078h.021c2.136.45 3.837 2.082 4.459 4.207.124-.472.228-.966.311-1.438v-.065c.02-.193.062-.407.062-.622 0-.065.021-.107.021-.15.02-.236.02-.473.02-.709 0-.193 0-.407-.02-.58 0-.064-.021-.107-.021-.17-.021-.151-.021-.28-.021-.409 0-.064-.021-.128-.021-.193-.02-.129-.02-.258-.062-.386-.021-.065-.021-.129-.021-.193l-.062-.387c-.02-.064-.02-.107-.041-.172-.021-.128-.062-.279-.104-.407-.021-.043-.021-.108-.041-.15-.042-.15-.083-.28-.125-.43-.021-.043-.021-.064-.041-.107-.062-.15-.104-.322-.166-.45-.021-.022-.021-.044-.021-.065-.062-.172-.145-.344-.228-.515-.892-1.997-2.385-3.65-4.21-4.744-.58-.344-1.182-.644-1.825-.88-.02-.021-.041-.021-.062-.021l-.56-.194c-.02-.021-.062-.021-.103-.021-.415-.107-.83-.193-1.265-.28-.063-.02-.104-.02-.166-.02-.166-.022-.311-.044-.477-.065-.063 0-.125-.021-.187-.021-.207-.022-.435-.022-.643-.022-5.785 0-10.472 4.85-10.472 10.84 0 .193 0 .407.02.6.042.065.042.086.042.13z" fill="#110580"/><path d="m88.871 114.134c-.228.279-2.094 2.962-2.26 4.378-.124.988-.684 2.791-1.078 5.195s-1.597 7.491 2.011 8.864c3.049 1.159 3.775-.794 4.417-1.717.643-.923 2.447-8.156 2.593-8.929.27-1.567 1.949-6.568 1.949-6.568.186-.408.29-.579-.145-.708-.81-.236-2.033-.687-2.924-1.116-.975-.472-1.95-1.395-2.51-1.868-.186-.171-.31-.279-.435-.064 0 .021-1.597 2.533-1.618 2.533z" fill="#c7645d"/><path d="m74.276 48.402c-3.173 2.94-5.703 6.59-5.952 11.14-.248 4.68 2.468 8.264 6.429 10.153 1.182.579 2.592.343 3.297-.902.602-1.073.311-2.855-.87-3.413-2.614-1.245-4.418-3.09-4.003-6.267.394-2.962 2.447-5.259 4.5-7.148 2.322-2.146-1.1-5.688-3.401-3.563z" fill="#fcb58a"/><path d="m102.658 51.517c1.057 1.438 1.97 2.962 2.737 4.572.643 1.374 1.514 2.983 1.348 4.572-.353 3.284-3.836 5.065-6.325 6.46-2.717 1.524-.311 5.86 2.426 4.315 3.775-2.125 7.818-4.894 8.565-9.638.394-2.447-.29-4.657-1.265-6.868-.913-2.104-1.97-4.1-3.339-5.946-.809-1.052-2.074-1.653-3.297-.901-.996.644-1.659 2.36-.85 3.434z" fill="#f0a173"/><path d="m100.469 40.132c-2.633-1.439-5.578-2.147-6.884-2.362-.394 1.76-1.286 2.726-3.194 2.726-1.95 0-2.613-1.008-2.986-2.811-.394.021-1.597.3-1.887.322-3.422.322-5.786 1.76-7.549 3.026-2.426 1.739-5.039 5.173-6.096 6.632-.312.408-.29.988.02 1.396.581.708 1.556 1.824 2.551 2.51 1.763 1.224 4.707 1.224 4.707 1.224l.436-4.207s-.747 4.572-.892 7.62c-.186 3.306 0 6.268 0 6.268l22.355.472s.809-3.284.332-7.813c-.124-1.18-1.348-6.203-1.348-6.203l1.037 3.327s1.555.064 4.23-1.16c.809-.364 1.95-1.266 2.613-1.824.311-.236.353-.708.125-1.009-1.162-1.695-4.894-6.675-7.57-8.134z" fill="#fff"/><path d="m90.616 33.146c-1.078 0-2.115-.172-3.09-.494v1.976c.975.322 2.053.322 3.132.236 1.451-.15 2.073-.43 3.048-.859v-1.353c-.954.322-1.99.494-3.09.494z" fill="#e3996d"/><path d="m129.577 3.007c-.062 0-.145-.021-.207-.107-.104-.108-.063-.28.041-.365l2.032-1.697c.104-.086.27-.064.353.043.104.107.062.28-.042.365l-2.032 1.697c-.021.043-.083.064-.145.064z" fill="#d4bfa9"/><path d="m132.639 2.05c.301-.218.295-.764-.012-1.222-.308-.457-.801-.652-1.102-.435s-.295.763.013 1.22c.307.458.8.653 1.101.436z" fill="#d4bfa9"/><path d="m90.333 72.913c3.567.858 7.175 1.524 10.721 2.447 1.763.45 3.526.966 5.247 1.61.394.15.809.3 1.182.45.187.086.394.15.601.236.146.065.498.15.602.28.166.235-.332.708-.456.88-.312.364-.602.73-.892 1.094-4.397 5.495-8.42 11.312-11.717 17.6-1.825 3.499-3.4 7.105-4.686 10.84-.187.515.622.751.808.236 2.344-6.89 5.786-13.35 9.768-19.34 2.011-3.025 4.168-5.945 6.449-8.778.27-.365.56-.708.85-1.052.27-.322.56-.622.684-1.03.104-.365.063-.773-.207-1.052-.269-.279-.726-.407-1.078-.536-1.721-.73-3.505-1.31-5.309-1.825-4.065-1.159-8.233-1.91-12.339-2.897-.539-.108-.746.708-.228.837z" fill="#fff"/><path d="m77.499 53.178s1.348-1.481 1.825-2.49c.477-1.03 1.058-2.94 1.058-2.94s-.415 2.811-.664 4.035c-.353 1.696-.747 2.511-.747 2.511l-1.285-.064s-.063-.236-.083-.494c-.042-.257-.104-.558-.104-.558zm24.823.301s-1.161-1.61-1.535-2.684c-.373-1.073-.725-3.048-.725-3.048s.103 2.855.207 4.079c.166 1.739.477 2.597.477 2.597l1.286.065s.083-.236.145-.494c.062-.236.145-.515.145-.515z" fill="#e0e0e0"/><path d="m103.704 72.525h-26.959c-.892 0-1.68-.666-1.866-1.589l-3.194-16.656c-.228-1.223.664-2.34 1.867-2.34h34.382c1.244 0 2.157 1.224 1.846 2.469l-4.251 16.656c-.208.859-.975 1.46-1.825 1.46z" fill="#c5c6e3"/><path d="m93.887 63.01c-.104 1.481-1.348 2.705-2.758 2.705s-2.634-1.203-2.758-2.684c-.124-1.48 1.12-2.704 2.758-2.704 1.638-.022 2.882 1.18 2.758 2.683z" fill="#e8e9ff"/><path d="m125.414 13.464c.85-.838 2.467-1.203 3.421-.73.954.472.622.365.954.472s.933-.043 1.514.408c.643.537 1.866 1.975 1.203 3.864-.56 1.61-2.385 2.984-4.562 2.597-2.178-.386-3.256-1.738-3.547-2.876-.331-1.353.187-2.941 1.017-3.735z" fill="#ff5856"/><path d="m130.146 13.872s-.062-2.254 1.306-2.77c1.369-.515 3.588-1.223 3.484-1.073-.103.13-.643 2.576-1.555 3.22-1.41 1.01-3.235.623-3.235.623z" fill="#1f6771"/><path d="m128.476 14.584s.207-1.095.248-1.739c.083-1.33.063-1.996.063-1.996l1.099.193s-.145 1.567-.27 2.125c-.228 1.009-.56 1.61-.56 1.61s-.207.172-.394.065c-.186-.086-.186-.258-.186-.258z" fill="#6b4d3a"/><path d="m129.627 10.802c.029-.15-.193-.324-.497-.387-.303-.063-.572.009-.602.16-.029.151.193.325.497.387.303.063.572-.008.602-.16z" fill="#8a634b"/></g></svg>