<svg fill="none" height="420" viewBox="0 0 179 420" width="179" xmlns="http://www.w3.org/2000/svg" xmlns:xlink="http://www.w3.org/1999/xlink"><linearGradient id="a" gradientUnits="userSpaceOnUse" x1="91" x2="91" y1="101" y2="138"><stop offset="0" stop-color="#282b31" stop-opacity=".49"/><stop offset="1" stop-color="#373b41" stop-opacity="0"/></linearGradient><linearGradient id="b" gradientUnits="userSpaceOnUse" x1="89.5" x2="89.5" y1="109" y2="190.718"><stop offset="0" stop-color="#1e2126"/><stop offset="1" stop-color="#FBC93B"/></linearGradient><linearGradient id="c"><stop offset="0" stop-color="#8288f5"/><stop offset="1" stop-color="#5157c0"/></linearGradient><linearGradient id="d" gradientUnits="userSpaceOnUse" x1="68.451" x2="68.451" xlink:href="#c" y1="52.64" y2="119.64"/><linearGradient id="e" gradientUnits="userSpaceOnUse" x1="109.615" x2="128.623" y1="54.585" y2="120.506"><stop offset="0" stop-color="#4b49a7"/><stop offset="1" stop-color="#222d98"/></linearGradient><linearGradient id="f" gradientUnits="userSpaceOnUse" x1="62.543" x2="62.543" y1="52.518" y2="83.769"><stop offset="0" stop-color="#8288f5"/><stop offset="1" stop-color="#7d83ed"/></linearGradient><linearGradient id="g" gradientUnits="userSpaceOnUse" x1="56.697" x2="56.697" xlink:href="#c" y1="41.452" y2="53.855"/><linearGradient id="h" gradientUnits="userSpaceOnUse" x1="116.497" x2="116.497" xlink:href="#c" y1="38.048" y2="54.464"/><linearGradient id="i" gradientUnits="userSpaceOnUse" x1="116.862" x2="116.862" xlink:href="#c" y1="54.585" y2="83.282"/><filter id="j" color-interpolation-filters="sRGB" filterUnits="userSpaceOnUse" height="67.472" width="41.531" x="88.85" y="54.585"><feFlood flood-opacity="0" result="BackgroundImageFix"/><feBlend in="SourceGraphic" in2="BackgroundImageFix" result="shape"/><feColorMatrix in="SourceAlpha" result="hardAlpha" values="0 0 0 0 0 0 0 0 0 0 0 0 0 0 0 0 0 0 127 0"/><feOffset dy="2.417"/><feGaussianBlur stdDeviation="3.928"/><feComposite in2="hardAlpha" k2="-1" k3="1" operator="arithmetic"/><feColorMatrix values="0 0 0 0 0 0 0 0 0 0 0 0 0 0 0 0 0 0 0.25 0"/><feBlend in2="shape" result="effect1_innerShadow"/></filter><path d="m89.5 75-89.5 34.444 89.5 27.556 89.5-28.615z" fill="#373b41"/><path d="m32 120.5 18-16.5h80.5l21 15.5-61.316 18.5z" fill="url(#a)"/><path d="m89.5 134.917-89.5-25.917v311h179v-311z" fill="url(#b)"/><path d="m85.319 41.452-37.39 11.188 41.165 15.443 41.531-13.497-45.306-13.133z" fill="#1f2893"/><path d="m147.188 89.61c-.098 3.795-2.477 5.635-3.654 6.08.244.568 1.023 1.703 2.192 1.703 3.8.097 6.131-4.661 6.821-7.053l-3.289 1.095-2.07-1.824z" fill="#db263c"/><path d="m78.132 116.114 1.218-.968-7.064-3.04z" fill="#73051f"/><ellipse fill="#fff" rx="2.436" ry="2.432" transform="matrix(.97535387 -.22064637 .22131027 .97520369 82.034604 71.309222)"/><path d="m88.269 70.151 11.403-2.58" stroke="#b6b6dc" stroke-linecap="round" stroke-width=".757"/><path d="m146.701 84.742c.244-4.013-2.679-7.048-6.576-5.102 2.192 0 3.415 3.648 1.705 7.052-1.711 3.405-3.532 5.346-2.071 8.872 1.17 2.821 5.44 2.067 7.186 1.702-.406-.08-2.704-.554-3.776-2.305-1.339-2.189 3.34-7.043 3.532-10.22z" fill="#990020"/><path d="m136.837 77.81c-3.775.73-5.805 2.681-6.942 4.14l-.244 18.97c.203-1.5.437-6.445 2.193-13.017 1.461-5.472 5.846-9.606 13.031-8.025-1.461-.973-3.491-2.946-8.038-2.067z" fill="#db263c"/><path d="m88.85 119.64v-51.8l-40.8-15.2 1.95 49.977z" fill="url(#d)"/><path d="m55.515 92.597c.777.203 1.542-.37 1.853-1.558l.97-3.704-.696-.182-.948 3.618c-.14.535-.427.888-.901.764-.475-.123-.551-.572-.411-1.107l.948-3.618-.692-.18-.97 3.704c-.311 1.188.074 2.062.847 2.263zm4.441-3.277c-.338-.088-.652.04-.896.354l.115-.44-.651-.17-1.03 3.933.65.17.557-2.124c.18-.684.493-.913.81-.83.294.076.428.406.288.94l-.6 2.29.652.17.632-2.415c.275-1.047.008-1.738-.527-1.878zm1.789 1.779c.056-.213.216-.289.377-.247.187.05.29.236.3.507l.678-.327c-.055-.594-.332-.977-.74-1.084-.52-.136-1.077.198-1.287 1-.363 1.384 1.022 1.41.871 1.984-.06.228-.23.301-.437.247-.252-.066-.374-.3-.36-.64l-.695.348c.023.653.31 1.08.814 1.213.54.14 1.122-.144 1.345-.994.379-1.447-1.018-1.425-.866-2.007zm2.121 3.68c.495.129 1.031-.168 1.409-.725l-.433-.651c-.186.296-.454.436-.717.367-.389-.101-.559-.624-.396-1.246.165-.629.57-1.002.959-.9.257.067.42.328.437.677l.694-.365c-.048-.66-.37-1.181-.865-1.31-.767-.2-1.57.556-1.876 1.728-.307 1.172.021 2.224.788 2.425zm3.977-3.399c-.338-.088-.652.04-.897.354l.528-2.013-.651-.17-1.443 5.505.651.17.557-2.123c.18-.684.493-.913.81-.83.293.076.428.405.288.94l-.6 2.289.652.17.632-2.415c.274-1.046.008-1.737-.527-1.877zm1.623 4.861c.742.194 1.575-.555 1.882-1.727s-.052-2.232-.794-2.426-1.57.557-1.877 1.729c-.306 1.172.047 2.23.789 2.424zm.26-.99c-.384-.101-.564-.627-.397-1.264s.582-1.008.966-.908c.388.102.569.628.402 1.265s-.583 1.008-.971.906zm2.737 1.773c.742.194 1.575-.555 1.882-1.727s-.052-2.232-.794-2.426-1.57.556-1.877 1.728c-.306 1.172.047 2.231.79 2.425zm.26-.991c-.384-.1-.564-.627-.397-1.264s.582-1.007.966-.907c.388.102.569.628.402 1.265s-.583 1.007-.971.906zm1.565 1.35.65.17 1.505-5.742-.651-.17zm1.598.527c.238.062.508-.187.605-.557s-.017-.719-.254-.78c-.237-.063-.508.186-.604.556-.097.37.016.719.254.78zm2.476-4.169c.223.058.478-.178.567-.516s-.017-.677-.239-.735c-.217-.056-.475.187-.564.526-.088.338.02.668.236.725zm-1.477 4.32.651.17 1.03-3.932-.65-.17-1.03 3.932zm3.71-3.351c-.338-.088-.652.04-.897.355l.116-.44-.651-.17-1.03 3.932.65.17.557-2.124c.18-.684.493-.913.81-.83.293.077.428.406.288.94l-.6 2.29.652.17.632-2.415c.274-1.046.008-1.738-.527-1.877z" fill="#b7bdf1"/><g filter="url(#j)"><path d="m130.38 54.585-41.53 13.619v51.436l41.53-17.267z" fill="url(#e)"/></g><path d="m35.263 108.093c-5.164 3.211-12.626.689-15.711-.972l2.923-3.289-2.923-5.102c3.37 1.703 11.35 4.086 16.32 0 6.211-5.107 10.717-9.241 15.833-9.363 5.115-.121 10.108 1.946 13.031 9.85-3.045-7.174-6.455-7.782-10.23-7.904-4.288-.138-12.788 12.768-19.243 16.78z" fill="#db263c"/><path d="m78.01 87.66 11.206-19.577h-39.704v8.633z" fill="#1e1075" fill-opacity=".37"/><path d="m76.55 83.769 12.666-15.93-41.653-15.32-11.692 14.348z" fill="url(#f)"/><path d="m28.076 53.855 19.73-1.094 37.512-11.309-17.294.122z" fill="url(#g)"/><path d="m105.536 38.048-20.218 3.405 44.698 13.01 17.659-4.012z" fill="url(#h)"/><path d="m59.744 100.676c-1.851-6.712-4.506-9.039-5.602-9.363 9.134-1.703 11.57 11.916 14.858 16.78 2.63 3.891 7.673 6.805 9.135 8.021-3.776-.973-6.943-1.095-10.596-3.035-1.54-.818-5.481-4.013-7.795-12.403z" fill="#990020"/><path d="m44.082 36.184c.076.044.83 3.194.83 3.194l-8.46.06 8.626 1.685.09 4.195-13.865-6.616 12.78-2.518z" fill="#e55163"/><path d="m43.833 40.885 1.102-1.508-8.46.06z" fill="#b72e4b"/><path d="m110.17 62.611c-1.2-5.058-.96-15.763 9.597-18.117 13.195-2.943 10.242 13.151 4.706 1.84-4.43-9.05 4.367-14.807 9.319-16.554m-66.487 24.873c-.441-2.925-2.84-8.53-8.906-7.545-7.584 1.232-2.611 9.111-2.092 1.966.416-5.717-5.446-6.9-8.428-6.778" stroke="#fff" stroke-dasharray="1.26 1.26" stroke-width=".252"/><path d="m102.45 52.51-23.867-2.151c-.656-.058-1.14-.636-1.081-1.302l2.858-31.663c.058-.656.637-1.138 1.303-1.08l23.866 2.15c.657.058 1.14.636 1.082 1.302l-2.858 31.663c-.058.656-.637 1.138-1.303 1.08z" fill="#cccdeb"/><path d="m96.396 50.07-23.046 6.537c-.637.183-1.293-.183-1.477-.82l-8.708-30.584c-.184-.636.193-1.292.82-1.475l23.046-6.537c.637-.183 1.294.193 1.477.82l8.709 30.583c.183.637-.183 1.292-.82 1.476z" fill="#d6d7f0"/><path d="m114.637 34.563c4.718-1.812 7.036-7.117 5.189-11.84-1.848-4.722-7.188-7.083-11.906-5.27-4.719 1.812-7.036 7.116-5.189 11.839 1.847 4.74 7.187 7.1 11.906 5.271z" fill="#fff"/><path d="m124.643 22.821-9.249 3.737c-.951.373-2.033-.12-2.41-1.104l-.017-.017c-.36-.985.115-2.106 1.066-2.497l9.265-3.737c.951-.374 2.033.119 2.41 1.104l.017.017c.344 1.002-.131 2.123-1.082 2.497z" fill="#fff"/><path d="m114.127 32.896c3.687-1.47 5.496-5.733 4.038-9.532-1.457-3.798-5.6-5.697-9.287-4.246-3.687 1.47-5.495 5.734-4.038 9.532 1.457 3.816 5.601 5.715 9.287 4.246z" fill="#525763"/><path d="m100.461 45.895-23.751 3.2c-.656.097-1.255-.366-1.342-1.021l-4.258-31.51c-.087-.655.367-1.253 1.024-1.34l23.74-3.201c.657-.087 1.256.366 1.343 1.022l4.257 31.51c.097.645-.357 1.253-1.013 1.34z" fill="#fff"/><path d="m78.544 25.907c1.333 0 2.414-1.08 2.414-2.41s-1.081-2.41-2.413-2.41c-1.333 0-2.414 1.08-2.414 2.41s1.081 2.41 2.413 2.41z" fill="#fff"/><path d="m79.616 33.862c1.332 0 2.413-1.08 2.413-2.41s-1.08-2.41-2.413-2.41c-1.332 0-2.414 1.08-2.414 2.41.01 1.33 1.082 2.41 2.414 2.41z" fill="#cccdeb"/><path d="m93.625 21.01-9.78 1.32c-.338.04-.637-.192-.686-.52-.038-.338.194-.637.522-.685l9.78-1.321c.328-.039.637.193.686.52.048.338-.194.647-.522.685zm-3.109 2.555-6.392.858c-.328.039-.637-.193-.685-.52-.039-.338.193-.637.521-.686l6.392-.858c.328-.038.637.193.685.52.048.329-.193.637-.521.686zm4.19 5.409-9.78 1.322c-.328.038-.637-.193-.686-.521-.038-.328.194-.637.522-.685l9.78-1.321c.328-.039.637.193.686.52.038.328-.194.637-.522.685zm-3.109 2.546-6.392.857c-.328.039-.637-.192-.685-.52-.039-.328.193-.637.521-.685l6.392-.858c.328-.039.637.193.685.52.039.328-.193.637-.521.685z" fill="#d6d7f0"/><path d="m79.818 18.493c-.53 1.1-.994 2.227-1.4 3.365-.328-.424-.743-.733-1.255-.752-.26-.01-.599.048-.743.309-.03.038-.049.086-.078.135-.164.28-.212.732.126.925.26.154.512.241.714.473.3.337.512.761.696 1.157.328.703 1.322.54 1.467-.193.328-1.716.763-3.413 1.284-5.081.155-.54-.56-.849-.81-.338z" fill="#4e53ba"/><path d="m96.125 1.62-.801-.714c-.27-.24-.695-.222-.937.048l-11.615 12.882 1.777 1.6 11.634-12.881c.241-.27.222-.694-.058-.935z" fill="#ffbc00"/><path d="m84.54 15.436-1.787-1.6-1.486 3.065.367.338z" fill="#ebdbcd"/><path d="m82.222 15.658.165.376.26.116.193.338-1.207.742-.366-.328.598-1.234z" fill="#2b31ba"/><path d="m111.503 25.341c.989 0 1.791-.8 1.791-1.789 0-.988-.802-1.79-1.791-1.79-.99 0-1.792.802-1.792 1.79s.802 1.79 1.792 1.79zm1.24.539-.814 2.053-.181-1.485h.108c.073 0 .127-.055.127-.128v-.404c0-.073-.054-.128-.127-.128h-.651c-.073 0-.127.055-.127.128v.404c0 .073.054.128.127.128h.108l-.181 1.485-.814-2.053c-.814.201-1.447.88-1.556 1.76l-.162 1.062c-.055.33.181.623.506.623 1.158.056 3.637.056 4.795 0 .325-.018.56-.311.506-.623l-.163-1.063c-.036-.88-.687-1.558-1.501-1.76z" fill="#fff"/><path d="m77.827 43.516.66-.081-.516-4.193-.66.08zm2.549-.313.677-.083-.516-4.192-.587.072.309 2.51-.986-2.427-.826.1.515 4.194.593-.073-.373-3.037zm.515-3.71.688-.085.443 3.593.658-.08-.442-3.594.69-.084-.074-.6-2.037.25zm2.985-.367 1.138-.14-.073-.598-1.797.22.515 4.193 1.797-.22-.073-.6-1.138.14-.151-1.228.904-.11-.074-.6-.904.111zm4.037 3.153c-.085-.147-.11-.297-.134-.5l-.08-.647c-.054-.437-.2-.741-.547-.839.277-.174.38-.472.327-.903l-.04-.33c-.08-.647-.413-.928-1.096-.844l-.994.122.516 4.192.659-.08-.21-1.708.227-.027c.3-.037.45.09.497.48l.081.659c.042.341.074.404.123.507zm-1.513-3.462c.234-.029.352.09.388.39l.051.413c.042.336-.095.462-.34.492l-.258.032-.158-1.288.317-.04zm3.283 3.245.677-.083-.515-4.192-.587.072.308 2.51-.985-2.427-.827.1.516 4.194.593-.073-.374-3.037zm.673-3.317c.147 1.198 1.455 1.202 1.561 2.065.037.3-.081.423-.291.449s-.355-.066-.392-.366l-.037-.3-.622.077.031.258c.083.67.465 1.013 1.112.934.647-.08.935-.504.853-1.175-.147-1.198-1.455-1.202-1.561-2.064-.037-.3.069-.428.278-.454.21-.026.344.073.38.373l.022.174.623-.077-.016-.132c-.083-.67-.46-1.013-1.1-.935-.641.079-.923.502-.84 1.173zm3.154 1.024.749-.092.22 1.797.672-.082-.516-4.193-.67.083.22 1.797-.749.091-.22-1.797-.66.081.516 4.193.66-.08zm2.118 1.565.66-.081-.516-4.193-.66.08zm1.596-4.452-.97.119.515 4.193.659-.081-.194-1.575.312-.038c.659-.081.937-.486.855-1.157l-.067-.545c-.083-.671-.451-.997-1.11-.916zm.073.599c.21-.026.336.056.372.356l.078.628c.037.3-.065.41-.275.435l-.311.039-.175-1.42z" fill="#ff5856"/><path d="m101.395 83.282-12.18-15.078 41.044-13.619 14.25 12.038z" fill="url(#i)"/><path d="m141.012 31.82s-.94-2.089-.837-2.16l13.797-8.575z" fill="#ea8724"/><path d="m136.336 27.723 13.72-5.513-12.648 2.474 1.171-3.304 15.394-.295-19.6 12.178z" fill="#fb0"/><path d="m138.951 26.668-1.533-2.002 12.648-2.474z" fill="#f9a41c"/></svg>