<svg xmlns="http://www.w3.org/2000/svg" width="392" height="286" fill="none" viewBox="0 0 392 286">
    <path fill="#FFBC00" fill-rule="evenodd" d="M.095 0H386.69c2.762 0 5 2.239 5 5v150.531c-41.108 47.243-100.711 76.952-167.027 76.952C100.638 232.483.094 128.568.094.381v-.38z" clip-rule="evenodd"/>
    <path fill="#FF6556" fill-rule="evenodd" d="M64.654 285.858H387c2.761 0 5-2.238 5-5V155.839c-34.364-39.49-84.186-64.323-139.62-64.323-103.679 0-187.726 86.866-187.726 194.022v.32z" clip-rule="evenodd"/>
    <g filter="url(#prefix__filter0_d)">
        <path fill="#DEC7B2" d="M164.056 153.363c-10.189 0-18.517-.978-18.783-2.201l1.507 18.431c0 8.742 7.767 15.863 17.276 15.863 9.51 0 17.277-7.152 17.277-15.863l1.506-18.431c-.207 1.223-8.535 2.201-18.783 2.201z"/>
        <path fill="#E8D4C1" d="M164.055 153.365c-10.366 0-18.754-1.008-18.813-2.231v-.031c.089-1.253 8.476-2.231 18.813-2.231 10.336 0 18.694 1.009 18.812 2.231v.031c-.059 1.253-8.476 2.231-18.812 2.231z"/>
        <path fill="#BA9C7E" d="M164.054 152.998c-8.741 0-15.829-.855-15.859-1.895v-.03c.089-1.039 7.147-1.895 15.859-1.895 8.713 0 15.8.825 15.86 1.895v.03c-.03 1.04-7.118 1.895-15.86 1.895z"/>
        <path fill="#EBDBCD" d="M145.922 159.081c1.211.031 2.392.52 3.426 1.559 1.919 1.925 3.13 4.921 4.695 7.183.591-1.223 1.093-2.476 1.566-3.76.561-1.528 2.539-2.965 4.105-1.711 1.654 1.314 2.894 2.842 3.987 4.707.915 1.619 1.683 3.515 3.13 4.737 1.388 1.162 2.983 1.498 3.544-.581.502-1.803.325-3.759.886-5.593.473-1.498 1.211-3.087 2.717-3.76 1.772-.794 3.485.184 5.05 1.009.945.489 1.861 1.009 2.776 1.559l-.325 3.882c-1.624-1.04-3.573-2.323-5.227-2.568-1.034-.153-.975.581-1.034 1.59-.059.917-.059 1.834-.088 2.72-.089 1.864-.355 3.698-1.418 5.227-2.274 3.301-6.527 3.148-9.509 1.039-1.625-1.131-2.776-2.598-3.81-4.279-.325-.551-.65-1.131-.975-1.681-1.27 3.087-3.248 5.838-6.467 4.676-2.009-.734-3.308-2.995-4.519-4.676-.384-.52-1.063-1.804-1.742-2.935l-.768-8.344z"/>
        <path fill="#4C7378" stroke="url(#prefix__paint0_linear)" d="M161.89 148.748c-.001.014-.003.047 0 .089-.091.267-.238.688-.466 1.336l-.001.003c-.189.548-.497.835-.816.964-.329.133-.735.125-1.149-.042-.831-.336-1.607-1.279-1.581-2.614v-.005c.03-3.118-.762-6.005-2.088-8.75-1.222-2.53-2.584-4.977-3.938-7.411l-.232-.416c-1.433-2.576-2.849-5.144-4.096-7.815-2.503-5.395-4.739-10.937-6.503-16.597h0l-.001-.004c-1.775-5.51-3.378-11.282-1.999-16.936.144-.584.537-.9.994-1.003.476-.106 1.03.02 1.442.376 1.794 1.556 2.777 3.654 3.831 5.902l.207.44c1.169 2.543 2.606 4.866 4.279 7.061.793 1.045 1.602 2.068 2.408 3.087 2.648 3.348 5.258 6.647 7.138 10.492 4.733 9.766 5.868 21.249 2.601 31.695l-.003.011-.003.011-.001.002c-.004.018-.018.07-.023.124z"/>
        <path fill="#57848A" d="M161.982 59.468c1.27-2.414 5.079-.764 4.312 1.865-2.215 7.794-.621 16.077.738 23.871 1.388 7.978 3.012 15.894 3.987 23.933 1.683 14.274 1.152 30.32-7.59 42.241-.945 1.283-2.924.214-2.156-1.315.856-1.681-1.329-12.806-2.274-16.382-.975-3.668-1.979-7.367-2.865-11.034-1.742-7.214-3.16-14.58-3.544-22.038-.738-14.457 2.717-28.487 9.392-41.14z"/>
        <path fill="#689399" stroke="url(#prefix__paint1_linear)" d="M167.904 124.092v-.001c.971-4.716 2.318-9.5 4.419-13.787 1.987-4.023 5.015-6.899 8.608-9.408l.002-.001c.363-.256.737-.514 1.116-.775 1.381-.952 2.832-1.952 4.104-3.103 1.633-1.479 3.018-3.245 3.657-5.568h0c.273-1 1.246-1.472 2.204-1.363.47.054.89.248 1.173.55.274.292.452.716.398 1.307-.551 5.792-2.931 10.913-5.7 15.974-2.987 5.418-5.612 10.662-7.105 16.78l-.001.002c-.212.881-.421 1.781-.633 2.692-1.049 4.515-2.163 9.313-4.047 13.492-2.255 5.002-5.574 9.027-11.121 10.562h0l-.007.002c-.025.008-.043.011-.055.012-.012-.017-.031-.05-.052-.111-.1-.288-.144-.868-.067-1.877.152-1.984.743-5.322 1.837-10.522.528-2.483.594-5.027.656-7.518l.001-.04c.063-2.494.124-4.933.613-7.299zm-3.008 27.368l.003.001-.003-.001z"/>
        <path fill="#E8D4C1" d="M287.796 51.916l-.562-.55 5.434-6.051 4.253 6.113-.65.458-3.662-5.257-4.813 5.288z"/>
        <path fill="#7A5B3C" d="M268.562 208.595c-1.565.428-3.249-.672-3.987-2.598l-4.105-10.758c-.915-2.354.03-4.952 1.92-5.472l2.54-.703c1.919-.519 3.927 1.254 4.282 3.76l1.565 11.462c.266 2.048-.679 3.882-2.215 4.309zM203.265 208.595c1.565.428 3.248-.672 3.987-2.598l4.105-10.758c.915-2.354-.03-4.952-1.92-5.472l-2.54-.703c-1.919-.519-3.927 1.254-4.282 3.76l-1.565 11.462c-.295 2.048.65 3.882 2.215 4.309z"/>
        <path fill="#A67C52" d="M278.279 219.109c-2.038.55-4.223-.886-5.168-3.392l-5.316-13.969c-1.152-3.056.03-6.418 2.51-7.091l3.308-.886c2.481-.673 5.109 1.62 5.582 4.89l2.008 14.885c.354 2.629-.886 5.013-2.924 5.563zM193.523 219.109c2.038.55 4.223-.886 5.168-3.392l5.316-13.969c1.152-3.056-.029-6.418-2.51-7.091l-3.308-.886c-2.481-.673-5.109 1.62-5.581 4.89l-2.009 14.885c-.325 2.629.886 5.013 2.924 5.563z"/>
        <path fill="#676BC4" d="M284.719 163.604H188.59c-5.759 0-10.485-4.86-10.485-10.851v-41.171c0-5.96 4.696-10.851 10.485-10.851h96.129c5.759 0 10.484 4.86 10.484 10.851v41.171c0 5.991-4.725 10.851-10.484 10.851z"/>
        <path fill="#676BC4" d="M288.294 143.338c-1.772.031-3.248 1.437-3.396 3.27-.65 7-2.569 22.955-6.733 30.902-2.865 5.471-11.311 5.96-13.556 5.991h-55.994c-2.245-.031-10.661-.52-13.556-5.991-4.164-7.947-6.113-23.872-6.733-30.902-.177-1.833-1.624-3.209-3.396-3.27l-17.809-.275c-2.037-.031-3.662 1.742-3.514 3.851.591 8.742 2.924 30.229 11.931 44.075 4.903 7.488 12.522 9.811 14.442 10.3 1.092.367 92.999.153 93.737-.03 2.451-.703 9.391-3.271 13.969-10.239 9.037-13.816 11.37-35.334 11.931-44.075.148-2.109-1.477-3.882-3.514-3.852l-17.809.245z"/>
        <path fill="#4A52BD" d="M208.584 183.594h56.053c2.245-.031 10.691-.52 13.556-5.991 4.43-8.436 6.32-25.889 6.881-32.124.118-1.314-.148-2.629-.738-3.79l-3.692-7.244c-.207-.397-.797-.306-.856.122-1.004 5.166-4.755 23.688-6.704 25.033-2.274 1.559-71.647.214-74.305 0-2.274-.153-4.636-19.195-5.286-24.819-.059-.458-.679-.581-.886-.153l-3.573 7c-.621 1.222-.886 2.598-.768 3.943.531 6.204 2.421 23.657 6.851 32.032 2.806 5.44 11.252 5.96 13.467 5.991z"/>
        <path fill="#2F37A8" d="M270.099 183.502h-68.398c-.207 0-.384 0-.561-.031-6.881-.275-11.311-7.091-8.801-13.204l3.101-7.55c.266-.641.886-2.323.886-2.323 2.658-6.143 6.881-7.671 12.758-7.671h53.661c5.877 0 11.252 3.148 12.877 7.977 0 0 .502 1.376.767 2.017l3.101 7.55c2.511 6.113-1.919 12.929-8.8 13.204-.207.031-.414.031-.591.031z"/>
        <path fill="#868AE0" d="M188.295 145.51c-.118-1.375.147-2.751.768-3.943l3.573-6.999c.207-.398.738-.306.856.092 0 0-.088-1.284-2.658-1.468h-10.1c-1.742 0-3.455.52-4.932 1.498l-9.243 6.205c-1.95 1.314-3.101 3.606-2.983 6.021-.148-2.109 1.476-3.882 3.514-3.851l17.808.275c1.654.031 3.042 1.253 3.367 2.904l.03.03c.029-.244 0-.519 0-.764zM285.074 145.508c.118-1.376-.266-2.72-.886-3.943l-3.574-6.969c-.206-.397-.738-.306-.856.092 0 0 .088-1.284 2.658-1.467h10.07c1.743 0 3.485.519 4.932 1.497l9.244 6.205c1.979 1.314 3.101 3.637 2.983 6.021.148-2.109-1.506-3.881-3.514-3.851l-17.809.275c-1.683.031-2.982 1.253-3.278 2.904-.029.031 0-.52.03-.764z"/>
        <path fill="#AB534D" d="M282.123 159.539s2.894.336 4.991 2.568c2.097 2.231 1.388 5.96 0 7.121-2.422 1.987-7.088 1.987-10.602 1.987-3.515 0-5.848-.825-5.848-.825l4.489-11.523s2.806-.52 6.97.672z"/>
        <path fill="#FCB58A" d="M240.657 194.412c-1.742 3.27-3.455 6.51-5.168 9.75-1.152 2.17.443 5.135 2.451 5.96 2.451 1.009 4.607-.367 5.759-2.537 1.742-3.27 3.455-6.51 5.168-9.75 1.152-2.17-.443-5.135-2.451-5.96-2.422-1.039-4.607.336-5.759 2.537z"/>
        <path fill="#110580" d="M256.818 91.314s-3.81-12.623-5.11-17.941c-1.978-8.222-7.412-13.174-15.061-13.174-7.767 0-13.201 5.043-15.357 13.235-2.186 8.436-5.05 17.239-5.05 17.239-.325 1.13.206 2.323 1.24 2.75 2.451 1.01 7.619 2.813 19.167 2.66 10.307-.153 15.623-1.65 18.31-1.926 1.329-.183 2.215-1.498 1.861-2.843z"/>
        <path fill="#FCB58A" d="M241.043 87.343h-8.801v15.741c0 1.192.916 2.139 2.067 2.139h4.667c1.151 0 2.067-.947 2.067-2.139V87.343z"/>
        <path fill="#110580" d="M236.524 58.948c3.034 0 5.493-2.545 5.493-5.685 0-3.14-2.459-5.685-5.493-5.685-3.033 0-5.493 2.545-5.493 5.685 0 3.14 2.46 5.685 5.493 5.685z"/>
        <path fill="#EBDBCD" d="M309.294 77.9h-35.883c-.206 0-.384-.184-.384-.398v-26.01c0-.215.178-.398.384-.398h35.883c.206 0 .384.183.384.397v26.042c0 .183-.178.366-.384.366z"/>
        <path fill="#FCFAF8" d="M304.507 73.985h-26.313c-.177 0-.296-.153-.296-.306v-18.34c0-.183.148-.305.296-.305h26.313c.178 0 .296.153.296.306v18.339c0 .153-.148.306-.296.306z"/>
        <path fill="#FF8A91" stroke="url(#prefix__paint2_linear)" d="M204.164 139.42h0l.002-.001c7.129-1.886 17.012-1.605 25.161-.837 4.065.382 7.68.884 10.28 1.291 1.237.193 2.243.364 2.957.491l-12.369 8.149-.907.598 1.044.3.138-.48-.138.48h0l.002.001.007.002.026.007.104.03.397.114 1.437.411c1.203.343 2.84.807 4.572 1.293 3.456.969 7.32 2.028 8.873 2.368 1.52.333 7.272 1.849 12.698 3.352 2.711.75 5.332 1.495 7.295 2.084.983.295 1.795.55 2.37.746.218.074.397.138.536.192l-.067.13c-.169.321-.434.762-.769 1.29-.669 1.052-1.593 2.412-2.532 3.761-.937 1.348-1.886 2.68-2.6 3.676-.356.498-.655.911-.864 1.2l-.181.25-.172.002-1.208.012c-1.047.009-2.555.021-4.401.031-3.692.018-8.735.027-14.136-.013-10.819-.081-23.032-.356-28.753-1.131-5.773-.794-11.362-1.909-15.502-4.311-2.062-1.196-3.75-2.704-4.924-4.638-1.174-1.932-1.852-4.32-1.852-7.305 0-3.42 1.606-6.344 4.106-8.653 2.505-2.314 5.889-3.992 9.37-4.892z"/>
        <path fill="#FFADB2" stroke="url(#prefix__paint3_linear)" d="M248.135 154.018c-3.762-1.214-11.773-3.624-17.782-5.146.378-.169.812-.374 1.278-.618 1.554-.812 3.504-2.064 4.924-3.804 1.668-2.005 2.724-3.577 3.366-4.655.321-.539.538-.954.676-1.238l.072-.151.342-.02c.42-.024 1.034-.055 1.811-.084 1.554-.057 3.756-.106 6.349-.07 5.189.073 11.922.484 18.136 1.834 8.088 1.783 12.835 5.162 14.967 10.784h.001c1.283 3.379.456 7.084-1.624 11.296-1.736 3.515-4.3 7.297-7.109 11.439-.558.823-1.126 1.661-1.699 2.514l-.001.001c-3.402 5.084-9.498 12.081-14.763 17.825-2.629 2.867-5.045 5.416-6.803 7.247-.879.916-1.593 1.652-2.088 2.159l-.57.583-.148.151-.038.038-.003.003-.024.004c-.094.01-.246.006-.462-.024-.428-.059-1.006-.207-1.661-.419-1.306-.423-2.832-1.075-3.906-1.683l-.001-.001c-1.721-.963-3.354-2.676-4.091-3.499-.112-.133-.152-.322-.101-.52.187-.679.645-2.084 1.248-3.936.392-1.203.846-2.595 1.326-4.099 1.215-3.803 2.593-8.294 3.542-12.148h0c1.653-6.75 4.357-11.823 6.644-15.206 1.143-1.691 2.183-2.959 2.933-3.802.375-.422.678-.737.886-.945.104-.104.184-.182.237-.233l.06-.056.014-.013.003-.003h.001l.428-.388-.446-.368-.318.386c.318-.386.318-.386.317-.387h0l-.001-.001-.002-.001-.006-.005-.019-.015-.067-.051c-.058-.044-.144-.105-.258-.182-.228-.153-.571-.368-1.044-.624-.948-.511-2.416-1.188-4.525-1.869h-.001zm-.711 50.102s0 0 0 0l.351.347-.351-.347zm.032-.019l.008-.003-.008.003z"/>
        <path fill="#fff" d="M223.56 87.62c-1.417 0-1.447-4.248-1.447-4.737 0-.489.03-4.737 1.447-4.737 1.418 0 1.447 4.248 1.447 4.737.03.459-.029 4.738-1.447 4.738zm0-8.68c-.265.275-.679 1.681-.679 3.943 0 2.231.414 3.668.679 3.943.266-.275.68-1.681.68-3.943 0-2.292-.414-3.698-.68-3.943zM249.463 87.62c-1.418 0-1.447-4.248-1.447-4.737 0-.489.029-4.737 1.447-4.737 1.417 0 1.447 4.248 1.447 4.737 0 .459-.03 4.738-1.447 4.738zm0-8.68c-.266.275-.68 1.681-.68 3.943 0 2.231.414 3.668.68 3.943.266-.275.679-1.681.679-3.943 0-2.292-.413-3.698-.679-3.943z"/>
        <path fill="#FCB58A" d="M236.644 90.736c8.057 0 14.589-6.76 14.589-15.1 0-8.339-6.532-15.099-14.589-15.099-8.058 0-14.589 6.76-14.589 15.1 0 8.338 6.531 15.099 14.589 15.099z"/>
        <path fill="#110580" d="M221.76 76.737c.03.245.03.49.06.703 0 .03 0 .061.029.092.03.275.059.52.089.764v.03c.029.276.088.55.147.826.975-4.157 4.607-7.244 8.919-7.244.532 0 1.063.03 1.565.153.384.091.798.153 1.182.153 2.717 0 4.961-2.11 5.257-4.86 0 0 .029 0 .029-.03-.029.274-.088.58-.088.886 0 3.209 2.51 5.807 5.611 5.807h.029c3.042.642 5.464 2.965 6.35 5.99.177-.672.325-1.375.443-2.047v-.092c.029-.275.088-.58.088-.886 0-.092.03-.153.03-.214.03-.336.03-.673.03-1.009 0-.275 0-.58-.03-.825 0-.092-.03-.153-.03-.245-.029-.213-.029-.397-.029-.58 0-.092-.03-.184-.03-.275-.029-.184-.029-.367-.088-.55-.03-.092-.03-.184-.03-.276l-.088-.55c-.03-.091-.03-.153-.059-.244-.03-.184-.089-.398-.148-.581-.03-.061-.03-.153-.059-.214-.059-.214-.118-.397-.177-.611-.03-.062-.03-.092-.059-.153-.089-.214-.148-.459-.237-.642-.029-.03-.029-.061-.029-.092-.089-.244-.207-.489-.325-.733-1.27-2.843-3.396-5.196-5.995-6.755-.827-.49-1.684-.917-2.599-1.253-.03-.03-.059-.03-.089-.03-.265-.093-.531-.184-.797-.276-.03-.03-.089-.03-.148-.03-.59-.153-1.181-.276-1.801-.398-.089-.03-.148-.03-.237-.03-.236-.031-.442-.062-.679-.092-.088 0-.177-.03-.266-.03-.295-.031-.62-.031-.915-.031-8.24 0-14.914 6.907-14.914 15.435 0 .275 0 .58.029.856.059.092.059.122.059.183z"/>
        <path fill="#C7645D" d="M233.362 206.15c-.325.397-2.983 4.218-3.219 6.235-.178 1.406-.975 3.974-1.536 7.397s-2.274 10.667 2.865 12.623c4.341 1.651 5.375-1.131 6.29-2.445.916-1.314 3.485-11.615 3.692-12.715.384-2.231 2.776-9.353 2.776-9.353.266-.581.413-.825-.207-1.008-1.152-.337-2.894-.979-4.164-1.59-1.388-.672-2.776-1.987-3.573-2.659-.266-.245-.443-.397-.621-.092 0 .031-2.274 3.607-2.303 3.607z"/>
        <path fill="#FCB58A" d="M213.225 111.642c-4.519 4.187-8.122 9.383-8.476 15.863-.354 6.663 3.514 11.768 9.155 14.457 1.684.826 3.692.489 4.696-1.283.856-1.529.443-4.066-1.24-4.86-3.722-1.773-6.291-4.402-5.7-8.925.561-4.218 3.485-7.489 6.408-10.178 3.308-3.057-1.565-8.1-4.843-5.074z"/>
        <path fill="#F0A173" d="M253.419 116.656c1.506 2.047 2.806 4.218 3.898 6.51.916 1.956 2.156 4.248 1.92 6.51-.502 4.677-5.464 7.214-9.008 9.2-3.868 2.17-.443 8.345 3.456 6.144 5.375-3.026 11.134-6.969 12.197-13.724.561-3.484-.414-6.632-1.802-9.781-1.299-2.995-2.805-5.838-4.754-8.466-1.152-1.498-2.954-2.354-4.696-1.284-1.418.917-2.363 3.362-1.211 4.891z"/>
        <path fill="#fff" d="M250.852 100.7c-3.751-2.048-7.944-3.056-9.805-3.362-.561 2.506-1.831 3.882-4.548 3.882-2.776 0-3.721-1.437-4.252-4.004-.562.03-2.275.428-2.688.458-4.873.459-8.24 2.507-10.75 4.31-3.455 2.476-7.176 7.366-8.683 9.445-.443.58-.413 1.406.03 1.986.827 1.009 2.215 2.598 3.633 3.576 2.51 1.743 6.703 1.743 6.703 1.743l.621-5.991s-1.064 6.51-1.27 10.851c-.266 4.707 0 8.925 0 8.925l31.836.672s1.152-4.676.473-11.126c-.178-1.681-1.92-8.833-1.92-8.833l1.477 4.738s2.215.091 6.024-1.651c1.152-.52 2.776-1.803 3.721-2.598.443-.336.502-1.009.178-1.437-1.654-2.414-6.97-9.505-10.78-11.584z"/>
        <path fill="#E3996D" d="M236.643 90.705c-1.536 0-3.013-.245-4.401-.703v2.812c1.388.458 2.924.458 4.46.336 2.067-.214 2.953-.611 4.341-1.223v-1.925c-1.359.458-2.835.703-4.4.703z"/>
        <path fill="#D4BFA9" d="M292.432 47.7c-.089 0-.207-.03-.296-.153-.147-.153-.088-.397.059-.52l2.895-2.414c.147-.123.384-.092.502.06.147.154.088.398-.059.52l-2.895 2.415c-.029.061-.118.092-.206.092z"/>
        <path fill="#D4BFA9" d="M296.37 45.916c.428-.308.42-1.086-.018-1.737s-1.141-.929-1.569-.62c-.428.309-.42 1.087.018 1.738.438.65 1.141.928 1.569.62z"/>
        <path fill="#fff" d="M236.469 147.187c5.079 1.223 10.218 2.17 15.268 3.485 2.51.642 5.021 1.375 7.472 2.292.561.214 1.152.428 1.683.642.266.122.561.214.857.336.207.092.709.214.856.398.237.336-.472 1.008-.65 1.253-.442.519-.856 1.039-1.269 1.559-6.261 7.824-11.991 16.107-16.686 25.063-2.599 4.982-4.844 10.117-6.675 15.435-.266.734.886 1.07 1.152.337 3.337-9.812 8.24-19.012 13.91-27.54 2.865-4.309 5.936-8.466 9.185-12.501.384-.519.797-1.008 1.21-1.497.384-.459.798-.887.975-1.468.148-.519.089-1.1-.295-1.497-.384-.398-1.034-.581-1.536-.764-2.451-1.04-4.991-1.865-7.56-2.598-5.789-1.651-11.725-2.721-17.572-4.127-.768-.153-1.064 1.009-.325 1.192z"/>
        <path fill="#E0E0E0" d="M218.008 118.582s1.919-2.109 2.599-3.546c.679-1.467 1.506-4.187 1.506-4.187s-.591 4.004-.945 5.746c-.502 2.415-1.063 3.576-1.063 3.576l-1.831-.092s-.089-.336-.119-.703c-.059-.366-.147-.794-.147-.794zM253.418 119.315s-1.654-2.292-2.185-3.82c-.532-1.529-1.034-4.341-1.034-4.341s.148 4.065.296 5.808c.236 2.475.679 3.698.679 3.698l1.831.092s.118-.336.207-.703c.088-.336.206-.734.206-.734z"/>
        <path fill="#C5C6E3" d="M255.103 146.122H216.71c-1.27 0-2.392-.948-2.658-2.262l-4.548-23.719c-.325-1.742.945-3.331 2.658-3.331h48.965c1.772 0 3.072 1.742 2.629 3.515l-6.054 23.718c-.296 1.223-1.388 2.079-2.599 2.079z"/>
        <path fill="#E8E9FF" d="M240.575 132.304c-.148 2.109-1.92 3.852-3.928 3.852s-3.751-1.712-3.928-3.821c-.177-2.109 1.595-3.851 3.928-3.851 2.333-.031 4.105 1.681 3.928 3.82z"/>
        <path fill="#FF5856" d="M285.787 62.066c1.211-1.192 3.514-1.712 4.873-1.04 1.358.673.886.52 1.358.673.473.153 1.329-.06 2.156.581.916.764 2.658 2.812 1.713 5.502-.797 2.292-3.396 4.248-6.497 3.698-3.101-.55-4.637-2.476-5.05-4.096-.473-1.925.266-4.187 1.447-5.318z"/>
        <path fill="#1F6771" d="M292.313 62.432s-.089-3.21 1.861-3.943c1.949-.733 5.109-1.742 4.961-1.528-.147.183-.915 3.668-2.215 4.585-2.008 1.436-4.607.886-4.607.886z"/>
        <path fill="#6B4D3A" d="M290.246 62.86s.295-1.56.354-2.476c.119-1.895.089-2.843.089-2.843l1.565.275s-.206 2.231-.384 3.026c-.324 1.437-.797 2.292-.797 2.292s-.295.245-.561.092c-.266-.122-.266-.367-.266-.367z"/>
        <path fill="#8A634B" d="M292.264 57.804c.042-.215-.275-.462-.706-.551-.432-.09-.816.012-.858.227-.041.216.275.463.707.552.432.09.816-.012.857-.228z"/>
    </g>
    <defs>
        <linearGradient id="prefix__paint0_linear" x1="151.141" x2="151.141" y1="89.011" y2="151.732" gradientUnits="userSpaceOnUse">
            <stop stop-color="#fff"/>
            <stop offset="1" stop-color="#fff" stop-opacity="0"/>
        </linearGradient>
        <linearGradient id="prefix__paint1_linear" x1="179.176" x2="179.176" y1="89.571" y2="151.961" gradientUnits="userSpaceOnUse">
            <stop stop-color="#fff"/>
            <stop offset="1" stop-color="#fff" stop-opacity="0"/>
        </linearGradient>
        <linearGradient id="prefix__paint2_linear" x1="229.722" x2="229.722" y1="137.494" y2="170.878" gradientUnits="userSpaceOnUse">
            <stop stop-color="#fff"/>
            <stop offset="1" stop-color="#fff" stop-opacity="0"/>
        </linearGradient>
        <linearGradient id="prefix__paint3_linear" x1="243.801" x2="253.801" y1="201.227" y2="160.727" gradientUnits="userSpaceOnUse">
            <stop stop-color="#fff"/>
            <stop offset="1" stop-color="#fff" stop-opacity="0"/>
        </linearGradient>
        <filter id="prefix__filter0_d" width="201.678" height="219.481" x="123" y="43.433" color-interpolation-filters="sRGB" filterUnits="userSpaceOnUse">
            <feFlood flood-opacity="0" result="BackgroundImageFix"/>
            <feColorMatrix in="SourceAlpha" values="0 0 0 0 0 0 0 0 0 0 0 0 0 0 0 0 0 0 127 0"/>
            <feOffset dy="15"/>
            <feGaussianBlur stdDeviation="7.5"/>
            <feColorMatrix values="0 0 0 0 0 0 0 0 0 0 0 0 0 0 0 0 0 0 0.1 0"/>
            <feBlend in2="BackgroundImageFix" result="effect1_dropShadow"/>
            <feBlend in="SourceGraphic" in2="effect1_dropShadow" result="shape"/>
        </filter>
    </defs>
</svg>
