<svg xmlns="http://www.w3.org/2000/svg" width="334" height="237" fill="none" viewBox="0 0 334 237">
    <path stroke="url(#prefix__paint0_linear)" d="M25.194 71.598l8.25 11.16c3.044 4.117 2.174 9.922-1.943 12.966v0c-4.117 3.044-9.923 2.174-12.967-1.943l-8.18-11.065-.088-.117"/>
    <path stroke="url(#prefix__paint1_linear)" d="M10.406 82.53L6.91 85.114"/>
    <path stroke="url(#prefix__paint2_linear)" d="M21.89 74.505l3.89-2.67"/>
    <path stroke="url(#prefix__paint3_linear)" d="M7.016 84.962l8.243 11.15c3.048 4.122 8.86 4.993 12.983 1.945v0c4.123-3.048 4.994-8.86 1.946-12.983l-8.243-11.15"/>
    <path stroke="url(#prefix__paint4_linear)" d="M41.604 77.874l-8.25-11.159c-3.044-4.117-8.85-4.987-12.967-1.943v0c-4.117 3.044-4.987 8.85-1.943 12.966l8.18 11.065.087.119"/>
    <path stroke="url(#prefix__paint5_linear)" d="M26.816 88.81l-3.496 2.584"/>
    <path stroke="url(#prefix__paint6_linear)" d="M38.273 80.191l3.402-2.514"/>
    <path stroke="url(#prefix__paint7_linear)" d="M23.496 91.336l-8.243-11.15c-3.048-4.122-2.177-9.935 1.945-12.983v0c4.123-3.048 9.936-2.177 12.984 1.946l8.243 11.15"/>
    <path fill="#fff" d="M49.739 91.595c.111 0 .279.11.39.164 1.117.822 2.177 1.644 3.238 2.412 2.12 1.534 4.13 2.904 6.084 4.165.111.055.223.165.334.274.056.11.168.22.168.33.056.109.056.273 0 .383 0 .11-.056.274-.112.383-.056.11-.167.22-.279.274-.111.055-.223.11-.39.165h-.391c-.112-.055-.28-.11-.335-.165-2.01-1.26-4.075-2.685-6.196-4.22-1.116-.822-2.176-1.644-3.237-2.412-.167-.164-.28-.328-.335-.548-.056-.219 0-.438.112-.602.111-.22.279-.33.446-.439.112-.164.335-.219.503-.164zm53.192 14.908c.223.054.39.164.502.328.112.165.223.329.223.549 0 .219-.055.438-.167.548-.112.164-.279.329-.447.383-3.74 1.316-7.646 2.083-11.61 2.248-.278 0-.502-.055-.67-.274-.222-.165-.334-.384-.334-.658s.056-.494.223-.658c.168-.219.447-.329.67-.329 3.74-.164 7.48-.877 10.996-2.137.223 0 .39-.055.614 0zm-33.713-2.795c.056 0 .168.054.224.054 3.404 1.59 6.977 2.795 10.66 3.672.112 0 .223.055.335.165.112.055.168.164.224.274l.167.329v.383c-.056.22-.223.439-.447.549-.223.109-.446.164-.725.109-3.796-.932-7.535-2.192-11.052-3.837-.223-.109-.39-.274-.446-.493-.112-.219-.112-.438-.056-.657.056-.22.223-.439.446-.494.224-.109.447-.109.67-.054z"/>
    <circle cx="316.411" cy="79.728" r="6.37" stroke="#fff" transform="rotate(-60 316.411 79.728)"/>
    <path stroke="#fff" d="M327.193 85.72c2.983-5.69.966-12.772-4.649-16.015-5.616-3.242-12.758-1.448-16.195 3.981l20.844 12.034zM270.868 5.552c.264-.406.894-.238.919.246l.197 3.765c.034.65.482 1.203 1.11 1.37l3.642.977c.468.125.502.776.05.95l-3.52 1.35c-.607.233-.995.83-.961 1.48l.198 3.765c.025.484-.583.717-.888.34l-2.373-2.93c-.409-.505-1.097-.689-1.703-.456l-3.52 1.351c-.453.174-.863-.333-.599-.739l2.054-3.162c.354-.545.316-1.256-.093-1.761l-2.373-2.93c-.304-.377.051-.923.518-.798l3.642.976c.628.168 1.293-.087 1.647-.632l2.053-3.162z"/>
    <path fill="#ACAFE0" d="M211.715 134.948h15.038v85.814c0 1.972-.789 3.904-2.21 5.285-1.421 1.419-3.316 2.208-5.329 2.208-1.973 0-3.907-.789-5.328-2.208-1.421-1.42-2.21-3.313-2.21-5.285v-85.814h.039z"/>
    <path fill="#FF7A82" d="M180.258 61.44c4.342 0 8.604.868 12.63 2.524 3.987 1.657 7.658 4.062 10.697 7.138 3.078 3.076 5.486 6.704 7.144 10.688 1.657 3.982 2.526 8.281 2.526 12.58v34.23c0 1.696-.671 3.313-1.855 4.496-1.184 1.183-2.803 1.853-4.5 1.853h-53.245c-1.697 0-3.315-.67-4.499-1.853-1.184-1.183-1.855-2.8-1.855-4.496V94.37c0-8.716 3.473-17.116 9.67-23.268 6.157-6.191 14.525-9.662 23.287-9.662z"/>
    <path fill="#FA5555" d="M258.211 61.44h-77.953c4.341 0 8.604.868 12.63 2.524 3.987 1.657 7.657 4.062 10.696 7.138 3.079 3.076 5.487 6.704 7.144 10.688 1.658 3.982 2.527 8.281 2.527 12.58V128.6c0 1.696-.671 3.313-1.856 4.496-1.184 1.183-2.802 1.853-4.499 1.853h77.953c.828 0 1.657-.158 2.447-.473.789-.315 1.46-.789 2.052-1.38.592-.592 1.066-1.302 1.382-2.051.315-.789.473-1.617.473-2.445V94.37c0-8.716-3.473-17.116-9.67-23.268-6.157-6.191-14.564-9.662-23.326-9.662z"/>
    <path fill="#BF3A3A" d="M180.26 67.2c7.381 0 14.446 2.919 19.656 8.124 5.21 5.206 8.131 12.265 8.131 19.64v28.828c0 .71-.158 1.42-.395 2.051-.276.67-.671 1.262-1.184 1.735-.513.513-1.105.907-1.737 1.144-.671.276-1.342.394-2.052.394h-44.877c-.711 0-1.421-.158-2.053-.394-.671-.276-1.263-.671-1.737-1.144-.513-.512-.907-1.104-1.184-1.735-.276-.671-.394-1.341-.394-2.051V94.964c0-7.375 2.92-14.434 8.13-19.6 5.21-5.167 12.315-8.164 19.696-8.164z"/>
    <path fill="#EBDBCD" d="M234.569 98.192c4.539 0 8.21-3.667 8.21-8.203 0-4.535-3.671-8.203-8.21-8.203-4.539 0-8.21 3.668-8.21 8.203 0 4.536 3.671 8.203 8.21 8.203z"/>
    <path fill="#FCB58A" d="M246.414 40.617h-11.84c-.79 0-1.54.316-2.092.868-.553.552-.869 1.301-.869 2.09v46.456c0 .79.316 1.538.869 2.09.552.553 1.302.868 2.092.868.789 0 1.539-.315 2.091-.867.553-.552.869-1.302.869-2.09V50.95c0-.198.079-.434.236-.553.158-.157.356-.236.553-.236h8.091c.79 0 1.54-.316 2.092-.828.553-.552.869-1.262.869-2.051v-3.668c0-.788-.316-1.538-.869-2.09-.552-.591-1.302-.907-2.092-.907z"/>
    <path fill="#FF7A82" d="M206.704 129.152H101.478c-1.54 0-2.802 1.262-2.802 2.8v.158c0 1.538 1.263 2.8 2.802 2.8h105.226c1.54 0 2.803-1.262 2.803-2.8v-.158c0-1.538-1.224-2.8-2.803-2.8z"/>
    <path fill="#D5D5ED" d="M153.421 95.042c-.395-.355-.908-.552-1.461-.552-.552 0-1.065.198-1.46.552l-31.812 26.423c.276.316.631.592.986.789.395.197.829.276 1.224.276h61.967c.434 0 .869-.118 1.224-.276.395-.197.71-.434.987-.789l-31.655-26.423z"/>
    <path fill="#fff" d="M184.955 79.228l-.158-.159.158.16z"/>
    <path fill="#fff" d="M150.5 103.874c.434.316.948.474 1.461.474.513 0 1.026-.158 1.46-.474l31.536-24.688-.158-.157c-.157-.119-.315-.197-.473-.276.079 0 .158.079.237.118-.434-.276-.948-.394-1.461-.394h-62.046c-.75 0-1.46.236-2.013.749l31.457 24.648z"/>
    <path fill="#E8E8F7" d="M145.131 99.693l-26.168-20.467-.237.236c-.474.592-.75 1.341-.711 2.09v37.82c0 .789.277 1.538.79 2.13l26.326-21.809zM184.759 121.896l-.079.079.079-.079zM184.72 121.936c-.158.118-.316.236-.474.315.158-.079.316-.197.474-.315zM184.957 79.226l-26.129 20.428 26.405 21.808c-.118.158-.276.276-.434.394.355-.315.671-.709.868-1.143.198-.434.316-.907.316-1.42v-37.78c0-.434-.079-.868-.276-1.262-.158-.394-.434-.75-.75-1.025z"/>
    <path fill="#4C7378" d="M223.247 206.293c1.184-3.589 2.762-7.059 4.657-10.332 1.737-2.879 3.355-5.127 4.618-7.02 1.263-1.853 2.329-3.431 3.118-4.653.829-1.223 1.46-2.09 2.131-2.209.671-.078 1.579.592 2.408 2.169 1.026 2.209 1.539 4.654 1.46 7.099-.079 3.273-.513 6.507-1.381 9.662-.75 3.194-1.697 6.507-2.842 9.977-1.105 3.273-2.329 6.507-3.75 9.662-1.302 2.879-2.683 5.678-3.868 7.729l-2.881 5.127c-.75 1.301-1.302 2.169-1.815 2.248-.514.078-1.5-.592-2.369-2.13-1.105-2.09-1.736-4.417-1.934-6.743-.315-3.155-.315-6.35 0-9.504.434-3.747 1.263-7.493 2.448-11.082z"/>
    <path fill="#57848A" d="M206.191 202.464c-1.855-4.259-4.065-8.676-5.802-13.211-1.658-4.18-2.644-8.597-2.881-13.093-.197-3.155.355-6.31 1.579-9.228.947-2.051 2.013-2.879 2.644-2.8.632.079 1.184 1.301 1.895 3.076.907 2.327 1.934 4.614 3.118 6.823 1.421 2.721 3.315 5.797 5.644 9.346 2.842 4.141 5.328 8.518 7.46 13.053 2.171 4.891 3.591 10.096 4.223 15.459.513 4.338.474 8.716-.118 13.014-1.106 7.336-3.474 11.477-4.381 11.398-1.264-.079-2.684-4.417-4.737-10.688-2.486-7.887-5.368-15.616-8.644-23.149z"/>
    <path fill="#689399" d="M200.742 218.045c-.513-.434-.947-.907-1.499-1.302-.513-.434-.948-.867-1.5-1.222-.237-.197-.513-.395-.75-.592-.237-.197-.513-.355-.75-.513l-.75-.552-.868-.552c-1.224-.749-2.763-1.577-4.263-2.681-1.579-1.065-2.921-2.406-4.026-3.944-.829-1.104-1.421-2.366-1.737-3.747-.315-1.34-.315-2.76-.079-4.101.474-1.814 1.382-2.603 2.013-2.603.632 0 1.421.75 2.447 1.578 1.106.946 2.408 1.617 3.829 1.932 1.381.276 3.237.316 6.789 1.104.434.079.908.237 1.381.355.474.158.948.355 1.5.513.513.197.947.394 1.5.592l1.46.749c1.027.512 1.974 1.104 2.921 1.774.947.671 1.816 1.42 2.684 2.209 3.158 2.958 5.565 6.665 6.986 10.805 1.145 3.274 1.539 6.744 1.184 10.214-.118 1.302-.394 2.603-.789 3.865-.316.947-.75 1.854-1.224 2.721-.907 1.42-1.697 2.051-2.17 2.011-1.303-.157-2.527-3.312-4.855-6.98-2.605-4.298-5.763-8.202-9.434-11.633z"/>
    <defs>
        <linearGradient id="prefix__paint0_linear" x1="17.721" x2="31.5" y1="77.087" y2="95.724" gradientUnits="userSpaceOnUse">
            <stop stop-color="#2400FF"/>
            <stop offset="1" stop-color="#6758C4"/>
        </linearGradient>
        <linearGradient id="prefix__paint1_linear" x1="8.658" x2="9.253" y1="83.822" y2="84.626" gradientUnits="userSpaceOnUse">
            <stop stop-color="#2400FF"/>
            <stop offset="1" stop-color="#6758C4"/>
        </linearGradient>
        <linearGradient id="prefix__paint2_linear" x1="23.786" x2="23.884" y1="73.104" y2="73.236" gradientUnits="userSpaceOnUse">
            <stop stop-color="#2400FF"/>
            <stop offset="1" stop-color="#6758C4"/>
        </linearGradient>
        <linearGradient id="prefix__paint3_linear" x1="14.48" x2="28.242" y1="79.443" y2="98.057" gradientUnits="userSpaceOnUse">
            <stop stop-color="#2400FF"/>
            <stop offset="1" stop-color="#6758C4"/>
        </linearGradient>
        <linearGradient id="prefix__paint4_linear" x1="34.166" x2="20.387" y1="83.41" y2="64.772" gradientUnits="userSpaceOnUse">
            <stop stop-color="#FFBC00"/>
            <stop offset="1" stop-color="#FF5C00"/>
        </linearGradient>
        <linearGradient id="prefix__paint5_linear" x1="25.068" x2="24.474" y1="90.102" y2="89.298" gradientUnits="userSpaceOnUse">
            <stop stop-color="#FFBC00"/>
            <stop offset="1" stop-color="#FF5C00"/>
        </linearGradient>
        <linearGradient id="prefix__paint6_linear" x1="39.974" x2="39.38" y1="78.934" y2="78.13" gradientUnits="userSpaceOnUse">
            <stop stop-color="#FFBC00"/>
            <stop offset="1" stop-color="#FF5C00"/>
        </linearGradient>
        <linearGradient id="prefix__paint7_linear" x1="51.16" x2="-27.34" y1="71.484" y2="60.984" gradientUnits="userSpaceOnUse">
            <stop stop-color="#FFBC00"/>
            <stop offset="1" stop-color="#FF5C00"/>
        </linearGradient>
    </defs>
</svg>
