<svg xmlns="http://www.w3.org/2000/svg" width="302" height="242" fill="none" viewBox="0 0 302 242">
    <g clip-path="url(#prefix__clip0)">
        <rect width="153" height="79" x="60.5" y="29.5" stroke="#fff" rx="4.5"/>
        <rect width="110" height="1" x="81" y="43" fill="#fff" rx=".5"/>
        <path fill="#fff" d="M81 84c0-2.761 2.239-5 5-5h45c2.761 0 5 2.239 5 5v7c0 2.761-2.239 5-5 5H86c-2.761 0-5-2.239-5-5v-7z"/>
        <rect width="100" height="1" x="81" y="54" fill="#fff" rx=".5"/>
        <rect width="100" height="1" x="81" y="66" fill="#fff" rx=".5"/>
        <path fill="url(#prefix__paint0_linear)" d="M196.223 220.27c-2.945-.841-12.745-2.451-15.637-2.364 2.366-.876 10.589-1.051 11.43-1.051 1.052 0 8.94 3.415 12.096 4.728 2.524 1.051 18.931 6.042 26.82 8.406l-12.622-8.406-12.358-3.677v-1.051l9.729 2.364-10.781-8.142c.351-.263 1.631-.631 3.945 0 2.313.63 8.501 4.815 11.306 6.829.614-.438 2.104-1.313 3.155-1.313 1.052 0 12.008 2.977 17.354 4.465l-3.681-4.465h2.367l6.047 5.778c2.805.876 9.256 2.732 12.622 3.153 3.365.42 6.135 1.225 7.099 1.576l-8.151 8.668c-1.665.175-6.206.42-11.044 0-6.047-.526-10.254-.263-21.298-3.415-11.043-3.152-24.716-11.032-28.398-12.083z"/>
        <path stroke="#000" stroke-linecap="round" stroke-width="6" d="M218.056 188.072l-13.072 29.629"/>
        <path stroke="#000" stroke-linecap="round" stroke-linejoin="round" stroke-width="5" d="M207.602 184.586l14.117 33.114 14.64-33.114"/>
        <path stroke="#000" stroke-linecap="round" stroke-width="5" d="M225.027 186.328l13.943 30.5"/>
        <ellipse cx="191.478" cy="149.73" fill="url(#prefix__paint1_linear)" rx="20.479" ry="5.229"/>
        <path fill="#00022F" d="M171 153.35v-3.621c1.052 1.845 6.472 5.655 19.73 6.128 13.259.472 20.958-4.725 22.098-5.571l-1.052 5.571c-.965.557-5.998 1.838-18.415 2.507-12.417.668-20.081-3.064-22.361-5.014z"/>
        <path fill="#E77A77" d="M184.262 148.765c1.099-.208 3.573-.606 4.673-.78.275-.433.66-1.56 0-2.6-.824-1.3-2.199-.78-2.749-.78-.549 0-2.749 2.08-3.574 3.12-.824 1.04.275 1.3 1.65 1.04z"/>
        <path fill="#CB0526" d="M183.462 147.987c-.667.697.092.872.556.872 1.39-.194 4.281-.639 4.725-.872.445-.232.556-1.258.556-1.743-.37-.29-1.334-.871-2.224-.871-1.111 0-2.779 1.743-3.613 2.614z"/>
        <path fill="url(#prefix__paint2_linear)" d="M189.533 149.023c-.42-.63-.175-2.715 0-3.679 10.764 0 12.076-1.576 14.964-3.153s4.988-7.884 11.026-15.242c4.831-5.887 11.114-7.008 13.652-6.833l8.926 22.338-15.49 20.497c-.612.438-2.257 1.367-3.938 1.577-2.1.263-9.188-3.154-9.451-6.044-.21-2.313 2.538-8.147 3.938-10.775-.875 1.49-4.095 4.573-9.976 4.993-7.351.526-13.126-2.89-13.651-3.679z"/>
        <path fill="url(#prefix__paint3_linear)" d="M224.914 116.519c-2.036-.651.509-6.598 2.035-9.49 1.102 1.537 3.307 4.718 3.307 5.152 0 .542-2.798 5.151-5.342 4.338z"/>
        <path fill="#CC2336" d="M227.188 118.114c0 .914-.286 2.286-.43 2.858h1.719c.071-3.335.086-9.489-.43-7.431-.644 2.572-3.222 2.286-3.007 2.572.215.286 2.148.857 2.148 2.001z"/>
        <path fill="#000116" d="M228.029 110.093c1.238 1.689 1.031 6.07.515 8.973-.515 9.766-2.837 11.086-4.127 17.684-1.289 6.599 2.58 10.03 3.354 10.294.773.264 16.508-.264 17.282-.792.774-.528 1.806-3.167 2.579-8.974.774-5.806-7.306-12.569-7.738-14.78-.774-3.959.516-13.725-1.806-16.364-2.321-2.64-6.964-3.432-10.317-1.584-3.354 1.847-1.29 3.431.258 5.543z"/>
        <path fill="url(#prefix__paint4_linear)" d="M209.285 158.298c.424-.213.884-1.153 1.06-1.597l12.718 5.322 3.71 12.774-20.137 5.056c-1.237-2.307-4.187-6.387-6.094-4.258-2.385 2.661-5.035 29.272-6.624 30.336-1.59 1.065-6.359 0-6.359-1.064s.265-24.748 1.059-31.401c.795-6.653 3.445-9.048 6.095-10.644 2.649-1.597 14.042-4.258 14.572-4.524z"/>
        <path fill="url(#prefix__paint5_linear)" d="M203.193 180.965c1.902 2.534 5.019 4.576 6.34 5.279 2.641 1.056 8.874 3.062 12.678 2.64 4.754-.528 13.735-.264 19.81-4.751 6.075-4.488 7.132-10.56 7.396-23.758.264-13.199-3.962-15.311-4.491-15.839-.528-.528-4.754-4.751-13.471-1.32-8.716 3.432-7.924 14.519-8.716 19.271-.792 4.751-1.849 9.239-3.434 11.351-1.585 2.111-5.811 1.847-10.829 1.319-5.019-.528-7.132-1.319-7.66-.528-.528.792 0 3.168 2.377 6.336z"/>
        <path fill="url(#prefix__paint6_linear)" d="M203.989 201.451c-.597-1.467-.747-14.76-.747-21.222l6.972 6.288v4.192c0 1.572-.996 11.267-1.494 11.791-.498.524-3.984.786-4.731-1.049z"/>
        <path fill="url(#prefix__paint7_linear)" d="M204.113 204.474v-3.331l4.678.256c.184.94.551 2.87.551 3.075 0 .257-1.376 1.026-2.477 1.026s-2.752-.513-2.752-1.026z"/>
        <path fill="#0D1F61" d="M202.516 206.541c1.117-1.012 1.583-2.277 1.676-2.783.372.59 1.34 1.771 2.234 1.771.894 0 1.863-.844 2.235-1.265.093.084.335.405.559 1.012.279.759 0 4.554 0 5.06 0 .506-2.514 1.265-6.146 1.265s-5.308-1.771-5.028-2.277c.279-.506 3.073-1.518 4.47-2.783z"/>
        <path fill="url(#prefix__paint8_linear)" d="M188.502 209.255c-.211-.431.088-2.877.264-4.046 1.317-.539 3.951-1.187 3.951.54 0 2.158.527 4.315-1.317 4.855-1.844.539-2.634-.809-2.898-1.349z"/>
        <path fill="#0D1F61" d="M187.618 210.036c.63-1.025 1.138-1.11 1.313-1.025 1.226.342 3.73.922 3.94.512.262-.512.525-.256.525.513 0 .768.263 6.657.263 7.169 0 .512-.263 1.024-6.304 1.28-6.04.257-10.505 0-10.242-1.536.262-1.536 9.717-5.633 10.505-6.913z"/>
        <path stroke="#FCFCFF" stroke-width="2" d="M281.512 0v58.306"/>
        <path fill="#fff" d="M281.442 57.718c8.814-.07 16.096 6.672 16.864 15.282.062.753-.534 1.403-1.284 1.411l-30.94.21c-.75.008-1.343-.638-1.286-1.405.667-8.61 7.843-15.448 16.646-15.498z"/>
        <path fill="#CDA189" fill-rule="evenodd" d="M46.745 96c1.954 1.178 3.873 1.747 4.775 1.515 2.26-.583 2.467-8.849.719-12.108-1.749-3.259-10.737-4.679-11.19 1.778-.157 2.24.784 4.24 2.174 5.873l-2.492 11.618h7.24L46.745 96z" clip-rule="evenodd"/>
        <path fill="#191847" fill-rule="evenodd" d="M49.377 81.859c-.99-.302-2.425-.404-3.03-.335.344-.824.48-1.741.37-2.635-.109-.868-.497-1.607-.855-2.381-.166-.357-.353-.712-.633-.985-.284-.278-.644-.462-1.022-.55-.387-.09-.791-.082-1.178 0-.172.035-.325.114-.493.157-.172.045-.256-.063-.38-.17-.301-.262-.742-.39-1.123-.436-.427-.052-.87.012-1.278.153-.396.136-.777.358-1.064.682-.128.144-.243.308-.319.488-.03.075-.036.119-.11.146-.068.025-.148.026-.22.05-.683.231-1.267.76-1.585 1.438-.186.395-.274 1.092-.25 1.873.024.78.73 2.818 1.389 3.56.588.664 1.453 1.102 2.288 1.293-.554.634-.923 1.425-1.196 2.23-.296.875-.48 1.784-.547 2.71-.064.879-.07 1.81.136 2.67.193.805.605 1.465 1.294 1.884.315.192.655.337.996.468.337.13.674.256 1.026.33.667.137 1.436.113 1.95-.417.185-.192.389-.432.524-.666.048-.084.078-.14.019-.221-.071-.099-.186-.174-.276-.251-.518-.44-.839-1.025-.92-1.722-.082-.707.108-1.619.795-1.927.848-.38 1.782.056 2.536.463.32-1.13.979-2.148 2.01-2.667 1.14-.574 2.45-.641 3.623-1.133.305-.129.616-.274.841-.536.094-.109.205-.25.242-.395.05-.19-.073-.35-.167-.497-.502-.785-2.403-2.37-3.393-2.671z" clip-rule="evenodd"/>
        <path fill="#997659" fill-rule="evenodd" d="M38.617 128.814l11.052 38.084 5.198 28.594h5.218l-5.208-66.678h-16.26z" clip-rule="evenodd"/>
        <path fill="#B28B67" fill-rule="evenodd" d="M33.652 128.814c.771 19.784.467 30.575.294 32.373-.172 1.797-1.152 13.836-7.829 34.908h5.427c8.842-20.215 11.93-32.254 12.943-34.908 1.014-2.655 4.01-13.446 8.383-32.373H33.652z" clip-rule="evenodd"/>
        <path fill="#69A1AC" fill-rule="evenodd" d="M38.383 128.814c2.875 13.105 7.847 34.023 14.916 62.756h7.631c.564-29.491-1.834-48.901-5.986-62.756H38.383z" clip-rule="evenodd"/>
        <path fill="#89C5CC" fill-rule="evenodd" d="M33.613 128.814c.755 19.784-1.202 39.276-7.265 63.064h8.142c8.858-19.914 15.208-39.309 19.547-63.064H33.613z" clip-rule="evenodd"/>
        <path fill="#191847" fill-rule="evenodd" d="M25.344 200.018l.222-3.578c.04-.641.669-1.085 1.308-1.038 2.479.183 5.357-.815 5.357-.815 2.902 2.056 6.829 3.222 9.229 3.788 1.134.267 1.868 1.426 1.55 2.548H25.943l-.6-.905zM53.703 200.018l.222-3.578c.04-.641.669-1.085 1.309-1.038 2.478.183 5.356-.815 5.356-.815 2.902 2.056 6.83 3.222 9.229 3.788 1.135.267 1.868 1.426 1.55 2.548H54.302l-.599-.905z" clip-rule="evenodd"/>
        <path fill="#CDA189" fill-rule="evenodd" d="M64.37 105.188l-10.472 5.735 3.868 4.151 7.61-6.967c4.008-1.105 5.84-1.913 5.499-2.425-.289-.431-.754-.416-1.183-.402-.334.011-.646.021-.834-.182-.43-.461.39-2.076 1.235-3.575.845-1.5-.058-1.369-.575-1.153-1.69 1.144-3.406 2.75-5.147 4.818zm10.53 8.047l-4.6 2.528.262 4.616s2.98-2.151 5.543-2.865c3.268-.911 4.59-1.607 6.187-3.642.855-1.089 1.58-3.278.767-3.991-.312-.273-1.475.373-2.66 1.032-.905.502-1.823 1.012-2.388 1.129-.761.156-.672-.83-.6-1.618.05-.566.092-1.03-.196-.896-1.346.023-2.315 3.707-2.315 3.707z" clip-rule="evenodd"/>
        <path fill="#2026A2" fill-rule="evenodd" d="M48.796 109.646c3.668-.038 8.56-.813 13.779-4.126l2.05 4.571c-3.6 3.573-8.663 6.508-13.089 6.384-3.488-.098-5.27-4.317-2.74-6.829z" clip-rule="evenodd"/>
        <path fill="#1F28CF" fill-rule="evenodd" d="M38.906 140.962c-3.487-.455-6.691-.873-8.59-.499-2.13-6.919-.361-11.275 1.272-15.297.984-2.424 1.92-4.726 1.921-7.394.006-7.771 6.245-19.731 7.163-19.731h8.372c.374 4.808 1.971 10.015 3.579 15.254.375 1.224.751 2.449 1.113 3.672 6.084 1.381 19.593-3.426 19.593-3.426s3.41 7.055 3.153 10.06c-7.863 4.108-14.603 5.939-20.155 6.06.176 3.294-.225 6.429-1.572 9.294-1.805 3.838-9.322 2.858-15.849 2.007z" clip-rule="evenodd"/>
    </g>
    <defs>
        <linearGradient id="prefix__paint0_linear" x1="166.57" x2="256.63" y1="185.385" y2="236.221" gradientUnits="userSpaceOnUse">
            <stop stop-color="#0D1F61"/>
            <stop offset=".872" stop-color="#2B3361" stop-opacity="0"/>
        </linearGradient>
        <linearGradient id="prefix__paint1_linear" x1="191.478" x2="191.478" y1="144.502" y2="154.959" gradientUnits="userSpaceOnUse">
            <stop stop-color="#0E2060"/>
            <stop offset="1" stop-color="#6874A0"/>
        </linearGradient>
        <linearGradient id="prefix__paint2_linear" x1="213.701" x2="213.701" y1="120.1" y2="164.542" gradientUnits="userSpaceOnUse">
            <stop stop-color="#027CAB"/>
            <stop offset="1" stop-color="#00347D"/>
        </linearGradient>
        <linearGradient id="prefix__paint3_linear" x1="227.206" x2="227.206" y1="107.029" y2="116.615" gradientUnits="userSpaceOnUse">
            <stop stop-color="#D36C5B"/>
            <stop offset="1" stop-color="#EE8E82"/>
        </linearGradient>
        <linearGradient id="prefix__paint4_linear" x1="207.166" x2="207.166" y1="156.701" y2="206.372" gradientUnits="userSpaceOnUse">
            <stop stop-color="#00002E"/>
            <stop offset="1" stop-color="#00012D"/>
        </linearGradient>
        <linearGradient id="prefix__paint5_linear" x1="202.929" x2="250.207" y1="179.117" y2="168.81" gradientUnits="userSpaceOnUse">
            <stop stop-color="#E8F4FF"/>
            <stop offset="1" stop-color="#73A9D8"/>
        </linearGradient>
        <linearGradient id="prefix__paint6_linear" x1="206.728" x2="206.728" y1="180.229" y2="202.886" gradientUnits="userSpaceOnUse">
            <stop stop-color="#414F7E"/>
            <stop offset="1" stop-color="#000021"/>
        </linearGradient>
        <linearGradient id="prefix__paint7_linear" x1="207.966" x2="204.812" y1="202.168" y2="204.425" gradientUnits="userSpaceOnUse">
            <stop stop-color="#BF0826"/>
            <stop offset="1" stop-color="#D58A8E"/>
        </linearGradient>
        <linearGradient id="prefix__paint8_linear" x1="193.508" x2="187.711" y1="207.637" y2="207.38" gradientUnits="userSpaceOnUse">
            <stop stop-color="#BF173A"/>
            <stop offset="1" stop-color="#DF8F86"/>
        </linearGradient>
        <clipPath id="prefix__clip0">
            <path fill="#fff" d="M0 0H302V242H0z"/>
        </clipPath>
    </defs>
</svg>
